<svg width="32" height="32" viewBox="0 0 32 32" fill="none" xmlns="http://www.w3.org/2000/svg">
<path d="M17.9 27.6H13.8M17.9 4.39998H13.8M6.6 23.2L5 20.4M26.75 20.35L25.05 23.2M26.75 11.65L25.05 8.79998M6.6 8.79998L5 11.6M13 20.95L11.75 23.1M19.95 8.89997L18.7 11.05M19.95 23.15L18.7 20.95M13 11.05L11.75 8.89997M10.7 16H7.55M24.45 16H21M19 14.25V17.7C19 18.5 18.35 19.1 17.6 19.1H14.15C13.35 19.1 12.75 18.45 12.75 17.7V14.25C12.75 13.45 13.4 12.85 14.15 12.85H17.6C18.35 12.85 19 13.5 19 14.25ZM11.8 3.49998V5.69998C11.8 6.49998 11.15 7.09998 10.4 7.09998H8.2C7.4 7.09998 6.8 6.44998 6.8 5.69998V3.49998C6.8 2.69998 7.45 2.09998 8.2 2.09998H10.4C11.15 2.09998 11.8 2.74998 11.8 3.49998ZM24.95 26.25V28.5C24.95 29.3 24.3 29.9 23.55 29.9H21.35C20.55 29.9 19.95 29.25 19.95 28.5V26.3C19.95 25.5 20.6 24.9 21.35 24.9H23.5C24.3 24.85 24.95 25.5 24.95 26.25ZM11.8 26.25V28.5C11.8 29.3 11.15 29.9 10.4 29.9H8.2C7.4 29.9 6.8 29.25 6.8 28.5V26.3C6.8 25.5 7.45 24.9 8.2 24.9H10.4C11.15 24.85 11.8 25.5 11.8 26.25ZM31.5 14.9V17.1C31.5 17.9 30.85 18.5 30.1 18.5H27.9C27.1 18.5 26.5 17.85 26.5 17.1V14.9C26.5 14.1 27.15 13.5 27.9 13.5H30.1C30.85 13.45 31.5 14.1 31.5 14.9ZM24.95 3.49998V5.69998C24.95 6.49998 24.3 7.09998 23.55 7.09998H21.35C20.55 7.09998 19.95 6.44998 19.95 5.69998V3.49998C19.95 2.69998 20.6 2.09998 21.35 2.09998H23.5C24.3 2.09998 24.95 2.74998 24.95 3.49998ZM5.55 14.9V17.1C5.55 17.9 4.9 18.5 4.15 18.5H1.9C1.1 18.5 0.5 17.85 0.5 17.1V14.9C0.5 14.1 1.15 13.5 1.9 13.5H4.1C4.9 13.45 5.55 14.1 5.55 14.9Z" stroke="#008DA5" stroke-miterlimit="10" stroke-linecap="round" stroke-linejoin="round"/>
</svg>
