<svg width="260" height="259" viewBox="0 0 260 259" fill="none" xmlns="http://www.w3.org/2000/svg">
<g clip-path="url(#clip0_745_474)">
<rect x="0.652161" width="258.696" height="258.696" rx="49.2754" fill="#1A191C"/>
<g clip-path="url(#clip1_745_474)">
<path fill-rule="evenodd" clip-rule="evenodd" d="M104.704 124.56C116.563 124.56 126.177 114.945 126.177 103.086C126.177 91.2262 116.563 81.6121 104.704 81.6121C92.8442 81.6121 83.23 91.2262 83.23 103.086C83.23 114.945 92.8442 124.56 104.704 124.56ZM104.704 119.788C113.928 119.788 121.406 112.31 121.406 103.086C121.406 93.8617 113.928 86.3841 104.704 86.3841C95.4797 86.3841 88.002 93.8617 88.002 103.086C88.002 112.31 95.4797 119.788 104.704 119.788Z" fill="#F1F9F8"/>
<path fill-rule="evenodd" clip-rule="evenodd" d="M104.704 115.016C111.292 115.016 116.634 109.674 116.634 103.086C116.634 96.4971 111.292 91.1559 104.704 91.1559C98.1151 91.1559 92.7739 96.4971 92.7739 103.086C92.7739 109.674 98.1151 115.016 104.704 115.016ZM104.704 112.365C109.828 112.365 113.983 108.211 113.983 103.086C113.983 97.9616 109.828 93.8074 104.704 93.8074C99.5793 93.8074 95.425 97.9616 95.425 103.086C95.425 108.211 99.5793 112.365 104.704 112.365Z" fill="#F1F9F8"/>
<path fill-rule="evenodd" clip-rule="evenodd" d="M130.653 121.604C129.974 122.938 129.852 124.487 130.314 125.911L129.442 123.227C128.979 121.803 127.97 120.621 126.636 119.941C125.302 119.261 123.752 119.139 122.328 119.602C120.904 120.065 119.722 121.074 119.042 122.408C118.363 123.742 118.241 125.292 118.703 126.716L110.853 102.554C109.893 99.6006 106.692 97.9695 103.739 98.929C100.785 99.8886 99.1543 103.09 100.114 106.043L113.041 145.83L103.838 139.738C103.225 139.319 102.535 139.028 101.808 138.881C101.081 138.733 100.332 138.734 99.6047 138.881C98.8777 139.029 98.1877 139.321 97.5757 139.74C96.9636 140.159 96.4418 140.697 96.0414 141.321C95.6226 141.934 95.331 142.624 95.1838 143.351C95.0367 144.078 95.0369 144.827 95.1846 145.554C95.3322 146.281 95.6243 146.971 96.0434 147.583C96.4626 148.195 97.0003 148.717 97.6247 149.118L124.535 169.342L123.433 169.7C122.118 170.127 121.44 171.677 121.921 173.159L125.411 183.898C125.892 185.38 127.352 186.236 128.667 185.808L166.854 173.4C168.169 172.973 168.847 171.423 168.366 169.941L164.876 159.202C164.395 157.72 162.936 156.865 161.615 157.294L160.35 157.705C161.946 155.006 162.426 151.663 161.387 148.464L152.664 121.618C151.705 118.664 148.503 117.033 145.55 117.993C142.597 118.952 140.966 122.154 141.925 125.107L141.053 122.422C140.59 120.998 139.581 119.816 138.247 119.136C136.913 118.457 135.363 118.335 133.939 118.797C132.515 119.26 131.333 120.27 130.653 121.604Z" fill="white"/>
</g>
<g opacity="0.5">
<g filter="url(#filter0_f_745_474)">
<path d="M132.844 403.632C108.949 322.047 97.387 232.441 99.1113 142.206C100.836 51.9707 115.797 -36.3086 142.761 -115.351C169.725 -194.393 207.919 -261.932 254.193 -312.399C300.467 -362.866 353.495 -394.813 408.903 -405.607L-226.026 530.306L132.844 403.632Z" fill="#00F5FF"/>
</g>
</g>
</g>
<defs>
<filter id="filter0_f_745_474" x="-533.997" y="-713.578" width="1250.87" height="1551.85" filterUnits="userSpaceOnUse" color-interpolation-filters="sRGB">
<feFlood flood-opacity="0" result="BackgroundImageFix"/>
<feBlend mode="normal" in="SourceGraphic" in2="BackgroundImageFix" result="shape"/>
<feGaussianBlur stdDeviation="153.986" result="effect1_foregroundBlur_745_474"/>
</filter>
<clipPath id="clip0_745_474">
<rect x="0.652161" width="258.696" height="258.696" rx="49.2754" fill="white"/>
</clipPath>
<clipPath id="clip1_745_474">
<rect width="86.9734" height="110.204" fill="white" transform="translate(82.2645 81.6121)"/>
</clipPath>
</defs>
</svg>
