<svg width="30" height="30" viewBox="0 0 30 30" fill="none" xmlns="http://www.w3.org/2000/svg">
<path d="M9.64934 9.02601L3.67534 15L9.64934 20.974C9.88134 21.206 9.88134 21.554 9.64934 21.786C9.53334 21.902 9.38834 21.96 9.24334 21.96C9.09834 21.96 8.95334 21.902 8.83734 21.786L2.45734 15.406C2.22534 15.174 2.22534 14.826 2.45734 14.594L8.83734 8.21401C9.06934 7.98201 9.41734 7.98201 9.64934 8.21401C9.88134 8.44601 9.88134 8.79401 9.64934 9.02601ZM28.2093 14.594L21.8293 8.21401C21.5973 7.98201 21.2493 7.98201 21.0173 8.21401C20.7853 8.44601 20.7853 8.79401 21.0173 9.02601L26.9913 15L21.0173 20.974C20.7853 21.206 20.7853 21.554 21.0173 21.786C21.1333 21.902 21.2783 21.96 21.4233 21.96C21.5683 21.96 21.7133 21.902 21.8293 21.786L28.2093 15.406C28.4413 15.174 28.4413 14.826 28.2093 14.594ZM18.6973 4.58901C18.4073 4.50201 18.0593 4.64701 17.9723 4.96601L11.5923 24.686C11.5053 25.005 11.6503 25.324 11.9693 25.411C12.0273 25.44 12.0853 25.44 12.1433 25.44C12.3753 25.44 12.6073 25.295 12.6943 25.034L19.0743 5.31401C19.1613 5.02401 19.0163 4.67601 18.6973 4.58901Z" fill="#008DA5"/>
</svg>
