<svg width="43" height="49" viewBox="0 0 43 49" fill="none" xmlns="http://www.w3.org/2000/svg">
<g clip-path="url(#clip0_752_819)">
<path d="M42.9593 14.7228C42.959 13.916 42.7855 13.203 42.4345 12.5911C42.0898 11.9894 41.5736 11.4851 40.8811 11.0863C35.1653 7.80894 29.4439 4.54159 23.7299 1.26087C22.1894 0.376504 20.6958 0.408745 19.1667 1.30581C16.8917 2.64004 5.5011 9.12947 2.10686 11.0845C0.709017 11.8892 0.028826 13.1207 0.02849 14.7213C0.0263062 21.3123 0.02849 27.9032 0.0263062 34.4943C0.0263062 35.2835 0.192784 35.9826 0.52826 36.5853C0.873144 37.2052 1.3966 37.7234 2.10501 38.1312C5.49942 40.0862 16.8915 46.5751 19.1661 47.9097C20.6958 48.8072 22.1894 48.8393 23.7304 47.9546C29.4445 44.6737 35.1663 41.4066 40.883 38.1292C41.5914 37.7216 42.1148 37.2031 42.4597 36.5836C42.7947 35.9809 42.9615 35.2818 42.9615 34.4925C42.9615 34.4925 42.9615 21.314 42.9593 14.7228Z" fill="#8C8C8C"/>
<path d="M21.5596 24.5437L0.528259 36.5854C0.873143 37.2053 1.3966 37.7235 2.10501 38.1313C5.49942 40.0863 16.8915 46.5752 19.1661 47.9098C20.6958 48.8073 22.1894 48.8394 23.7304 47.9547C29.4445 44.6738 35.1663 41.4067 40.883 38.1293C41.5914 37.7217 42.1148 37.2032 42.4597 36.5837L21.5596 24.5437Z" fill="#343434"/>
<path d="M15.3304 28.1106C16.5542 30.2351 18.8548 31.6681 21.4939 31.6681C24.1494 31.6681 26.4631 30.2169 27.6807 28.0696L21.5596 24.5437L15.3304 28.1106Z" fill="#343434"/>
<path d="M42.9593 14.7228C42.959 13.9159 42.7854 13.203 42.4345 12.5911L21.5596 24.5436L42.4597 36.5836C42.7947 35.9809 42.9612 35.2818 42.9615 34.4924C42.9615 34.4924 42.9615 21.314 42.9593 14.7228Z" fill="#737277"/>
<path d="M41.8101 25.4042H40.1769V27.0286H38.5434V25.4042H36.9103V23.7803H38.5434V22.1562H40.1769V23.7803H41.8101V25.4042ZM35.8507 25.4042H34.2176V27.0286H32.5844V25.4042H30.9512V23.7803H32.5844V22.1562H34.2176V23.7803H35.8507V25.4042Z" fill="white"/>
<path d="M27.6807 28.0695C26.4631 30.2168 24.1493 31.668 21.4939 31.668C18.8548 31.668 16.5542 30.235 15.3304 28.1104C14.7156 27.0444 14.3927 25.8366 14.394 24.6077C14.394 20.7086 17.5729 17.5477 21.4939 17.5477C24.1161 17.5477 26.4046 18.9627 27.6345 21.0656L33.8402 17.5121C31.3736 13.278 26.7685 10.4294 21.4939 10.4294C13.6192 10.4294 7.23578 16.7774 7.23578 24.6077C7.23578 27.1766 7.92303 29.5857 9.12415 31.6636C11.5845 35.9201 16.2027 38.7862 21.4939 38.7862C26.7949 38.7862 31.4203 35.9086 33.8771 31.6396L27.6807 28.0695Z" fill="white"/>
</g>
<defs>
<clipPath id="clip0_752_819">
<rect width="42.9474" height="48" fill="white" transform="translate(0.0263062 0.608887)"/>
</clipPath>
</defs>
</svg>
