<svg width="57" height="21" viewBox="0 0 57 21" fill="none" xmlns="http://www.w3.org/2000/svg">
<g clip-path="url(#clip0_752_995)">
<path d="M4.72613 6.50709C4.61707 6.50709 4.5898 6.45288 4.64433 6.37156L5.21691 5.63968C5.27144 5.55836 5.40776 5.50415 5.51683 5.50415H15.2506C15.3597 5.50415 15.3869 5.58547 15.3324 5.66679L14.8689 6.37156C14.8144 6.45288 14.678 6.5342 14.5962 6.5342L4.72613 6.50709Z" fill="white"/>
<path d="M0.609062 9.00075C0.5 9.00075 0.472734 8.94653 0.527265 8.86521L1.09984 8.13334C1.15437 8.05202 1.2907 7.9978 1.39976 7.9978H13.8328C13.9419 7.9978 13.9964 8.07912 13.9692 8.16044L13.751 8.811C13.7238 8.91942 13.6147 8.97364 13.5056 8.97364L0.609062 9.00075Z" fill="white"/>
<path d="M7.20733 11.4946C7.09827 11.4946 7.071 11.4133 7.12553 11.332L7.50725 10.6543C7.56178 10.573 7.67084 10.4917 7.7799 10.4917H13.233C13.3421 10.4917 13.3966 10.573 13.3966 10.6814L13.3421 11.332C13.3421 11.4404 13.233 11.5217 13.1512 11.5217L7.20733 11.4946Z" fill="white"/>
<path d="M35.5089 6.01908C33.7912 6.45279 32.6188 6.77806 30.9283 7.21177C30.5193 7.32019 30.4921 7.3473 30.1376 6.9407C29.7286 6.47989 29.4287 6.18172 28.8561 5.91066C27.1384 5.07036 25.4752 5.31431 23.9211 6.31725C22.067 7.50994 21.1127 9.27186 21.14 11.4675C21.1673 13.636 22.6669 15.425 24.8208 15.7232C26.6749 15.9672 28.229 15.3166 29.456 13.9342C29.7014 13.636 29.9195 13.3107 30.1921 12.9312C29.2106 12.9312 27.9836 12.9312 24.9299 12.9312C24.3573 12.9312 24.221 12.5789 24.4118 12.118C24.7663 11.2777 25.4207 9.86821 25.8024 9.16344C25.8842 9.0008 26.075 8.72973 26.484 8.72973C27.8746 8.72973 33.0005 8.72973 36.4087 8.72973C36.3541 9.46161 36.3541 10.1935 36.2451 10.9254C35.9452 12.877 35.209 14.6661 34.0093 16.2382C32.0462 18.8134 29.4832 20.4126 26.2386 20.8463C23.5666 21.1987 21.0855 20.6837 18.9042 19.0573C16.8866 17.5393 15.7414 15.5335 15.4415 13.0397C15.087 10.0851 15.9595 7.42862 17.7591 5.09746C19.6949 2.57656 22.2579 0.977271 25.3934 0.408035C27.9564 -0.052776 30.4103 0.245396 32.6188 1.73625C34.0638 2.68498 35.0999 3.98609 35.7816 5.55827C35.9452 5.80223 35.8361 5.93776 35.5089 6.01908Z" fill="white"/>
<path d="M44.5338 21.009C42.0526 20.9547 39.7896 20.25 37.881 18.6236C36.2723 17.2412 35.2635 15.4792 34.9363 13.392C34.4455 10.329 35.2908 7.61834 37.1448 5.20586C39.1352 2.60364 41.5346 1.24831 44.7792 0.679075C47.5603 0.191157 50.1777 0.462222 52.5498 2.06151C54.7038 3.52526 56.0398 5.50403 56.3943 8.10626C56.8578 11.7656 55.7944 14.7474 53.2587 17.2954C51.4592 19.1115 49.2507 20.25 46.715 20.765C45.9789 20.9005 45.2427 20.9276 44.5338 21.009ZM51.023 10.0579C50.9957 9.70554 50.9957 9.43448 50.9412 9.16341C50.4504 6.47987 47.9692 4.9619 45.379 5.55825C42.8433 6.12748 41.2074 7.72677 40.6075 10.2748C40.1168 12.3891 41.1529 14.5305 43.116 15.3979C44.6156 16.0485 46.1152 15.9671 47.5603 15.2353C49.7142 14.1239 50.8866 12.3891 51.023 10.0579Z" fill="white"/>
</g>
<defs>
<clipPath id="clip0_752_995">
<rect width="56" height="20.8" fill="white" transform="translate(0.5 0.208984)"/>
</clipPath>
</defs>
</svg>
