<svg width="30" height="30" viewBox="0 0 30 30" fill="none" xmlns="http://www.w3.org/2000/svg">
<g clip-path="url(#clip0_702_411)">
<path d="M6.1324 24.1751L2.93838 27.3692C2.84985 27.4577 2.73396 27.5019 2.61796 27.5019C2.50196 27.5019 2.38602 27.4577 2.29755 27.3692C2.25547 27.3271 2.22209 27.2772 2.19932 27.2222C2.17654 27.1672 2.16482 27.1083 2.16482 27.0488C2.16482 26.9893 2.17654 26.9303 2.19932 26.8754C2.22209 26.8204 2.25547 26.7704 2.29755 26.7284L5.49162 23.5343C5.57662 23.4493 5.69187 23.4016 5.81204 23.4016C5.93221 23.4016 6.04746 23.4493 6.13246 23.5343C6.2174 23.6193 6.26512 23.7345 6.26511 23.8547C6.2651 23.9749 6.21736 24.0901 6.1324 24.1751ZM7.17368 25.2164L5.48154 26.9085C5.43946 26.9506 5.40609 27.0006 5.38332 27.0555C5.36054 27.1105 5.34882 27.1694 5.34882 27.2289C5.34882 27.2884 5.36054 27.3474 5.38332 27.4023C5.40609 27.4573 5.43946 27.5073 5.48154 27.5494C5.52362 27.5914 5.57357 27.6248 5.62855 27.6476C5.68353 27.6704 5.74245 27.6821 5.80196 27.6821C5.86147 27.6821 5.92039 27.6704 5.97537 27.6476C6.03034 27.6248 6.0803 27.5914 6.12237 27.5494L7.81451 25.8572C7.89949 25.7722 7.94723 25.657 7.94723 25.5368C7.94723 25.4166 7.89949 25.3014 7.81451 25.2164C7.72953 25.1314 7.61428 25.0837 7.4941 25.0837C7.37392 25.0837 7.25866 25.1314 7.17368 25.2164ZM2.75815 24.1851L4.45029 22.493C4.53527 22.408 4.58301 22.2928 4.58301 22.1726C4.58301 22.0524 4.53527 21.9371 4.45029 21.8522C4.36531 21.7672 4.25005 21.7194 4.12987 21.7194C4.00969 21.7194 3.89443 21.7672 3.80945 21.8522L2.11732 23.5443C2.03234 23.6293 1.9846 23.7445 1.9846 23.8647C1.9846 23.9849 2.03234 24.1002 2.11732 24.1851C2.2023 24.2701 2.31755 24.3179 2.43773 24.3179C2.55791 24.3179 2.67317 24.2701 2.75815 24.1851ZM27.129 10.3815C25.9994 12.8712 24.4334 15.3222 22.5335 17.5905L23.7873 22.8343C23.8082 22.9218 23.8026 23.0135 23.7712 23.0979C23.7397 23.1822 23.6839 23.2552 23.6108 23.3077L15.1007 29.415C15.0324 29.4641 14.9518 29.4932 14.868 29.499C14.7841 29.5048 14.7002 29.4872 14.6258 29.4481C14.5514 29.409 14.4893 29.35 14.4465 29.2776C14.4037 29.2053 14.3819 29.1224 14.3835 29.0384L14.4786 24.0228L13.2209 22.7651L10.5236 25.4623C10.435 25.5508 10.3191 25.595 10.2032 25.595C10.0872 25.595 9.97122 25.5508 9.88275 25.4623L4.2043 19.7839C4.11934 19.6989 4.07162 19.5837 4.07162 19.4635C4.07162 19.3433 4.11934 19.2281 4.2043 19.1431L6.90158 16.4458L5.64382 15.1881L0.628291 15.2832C0.544241 15.2848 0.461405 15.263 0.389048 15.2202C0.316691 15.1774 0.257668 15.1153 0.218581 15.0409C0.179493 14.9665 0.161883 14.8826 0.16772 14.7988C0.173556 14.7149 0.20261 14.6343 0.251631 14.566L6.35896 6.05588C6.41138 5.98272 6.48441 5.92685 6.56874 5.8954C6.65306 5.86396 6.74485 5.85836 6.83236 5.87933L12.0768 7.13268C14.345 5.23295 16.7957 3.66706 19.2851 2.53771C22.5723 1.0463 25.8339 0.350811 28.7152 0.526624C28.8256 0.533361 28.9298 0.580274 29.008 0.658517C29.0863 0.736759 29.1332 0.840925 29.1399 0.951372C29.3156 3.83347 28.6203 7.09433 27.129 10.3815ZM1.51494 14.36L5.58497 14.2828C6.78847 12.5132 8.19208 10.8218 9.76097 9.25291C10.2383 8.77572 10.7291 8.31214 11.2327 7.86272L6.91772 6.83152L1.51494 14.36ZM6.41322 14.6757L14.9909 23.2534C16.6714 22.0996 18.2786 20.7592 19.7729 19.2649C25.2085 13.8294 28.4281 7.03169 28.254 1.41248C22.6343 1.23905 15.8373 4.45811 10.4017 9.89368C8.90745 11.388 7.56705 12.9953 6.41322 14.6757ZM12.58 22.1243L7.54247 17.0866L5.16554 19.4635L10.2032 24.5011L12.58 22.1243ZM21.8035 18.4345C21.3542 18.938 20.8908 19.4286 20.4137 19.9058C18.8448 21.4746 17.1534 22.8783 15.3837 24.0819L15.3067 28.1518L22.8351 22.749L21.8035 18.4345ZM18.3378 14.4702V14.2825C18.7727 14.2018 19.1519 14.005 19.3933 13.7258C19.6333 13.4484 19.7359 13.1012 19.6898 12.7219C19.5979 11.9646 19.0166 11.4928 17.9619 11.3196C17.1367 11.1841 17.1218 10.8766 17.1161 10.7608C17.0949 10.3247 17.5678 10.1951 17.6628 10.1735C18.0479 10.0857 18.5234 10.2048 18.7175 10.667C18.764 10.7778 18.8527 10.8656 18.9639 10.911C19.0752 10.9565 19.1999 10.9558 19.3107 10.9093C19.4216 10.8628 19.5093 10.7741 19.5548 10.6629C19.6002 10.5516 19.5996 10.4269 19.5531 10.316C19.3055 9.72665 18.8345 9.40804 18.3377 9.29289V9.09386C18.3377 8.97368 18.29 8.85843 18.205 8.77345C18.12 8.68847 18.0048 8.64073 17.8846 8.64073C17.7644 8.64073 17.6492 8.68847 17.5642 8.77345C17.4792 8.85843 17.4315 8.97368 17.4315 9.09386V9.29697C16.6653 9.4836 16.176 10.086 16.2109 10.8047C16.2365 11.3316 16.5355 12.0038 17.815 12.2139C18.6291 12.3475 18.7637 12.6139 18.7901 12.831C18.8053 12.9565 18.7799 13.0495 18.7079 13.1329C18.568 13.2946 18.2551 13.4085 17.9293 13.4163C17.5521 13.4249 17.0757 13.2731 16.9615 12.8151C16.9324 12.6985 16.8582 12.5982 16.7552 12.5363C16.6522 12.4744 16.5288 12.456 16.4122 12.485C16.2956 12.5141 16.1953 12.5883 16.1334 12.6913C16.0715 12.7944 16.053 12.9177 16.0821 13.0343C16.241 13.6712 16.7572 14.1306 17.4315 14.2749V14.4701C17.4315 14.5296 17.4432 14.5886 17.466 14.6435C17.4887 14.6985 17.5221 14.7485 17.5642 14.7906C17.6063 14.8326 17.6562 14.866 17.7112 14.8888C17.7662 14.9116 17.8251 14.9233 17.8846 14.9233C17.9441 14.9233 18.003 14.9116 18.058 14.8888C18.113 14.8661 18.1629 14.8327 18.205 14.7906C18.2471 14.7485 18.2805 14.6986 18.3033 14.6436C18.326 14.5886 18.3378 14.5297 18.3378 14.4702ZM17.8847 16.4833C15.2924 16.4833 13.1835 14.3744 13.1835 11.7821C13.1835 9.18981 15.2924 7.08091 17.8847 7.08091C20.4769 7.08091 22.5858 9.18981 22.5858 11.7821C22.5858 14.3744 20.4769 16.4833 17.8847 16.4833ZM17.8847 15.577C19.9772 15.577 21.6796 13.8746 21.6796 11.7821C21.6796 9.68955 19.9772 7.98716 17.8847 7.98716C15.7921 7.98716 14.0897 9.68955 14.0897 11.7821C14.0897 13.8746 15.7921 15.577 17.8847 15.577Z" fill="#008DA5"/>
</g>
<defs>
<clipPath id="clip0_702_411">
<rect width="29" height="29" fill="white" transform="translate(0.166626 0.5)"/>
</clipPath>
</defs>
</svg>
