<svg width="49" height="49" viewBox="0 0 49 49" fill="none" xmlns="http://www.w3.org/2000/svg">
<g clip-path="url(#clip0_752_834)">
<path d="M48.7112 6.27144C48.7112 3.30894 46.3112 0.908936 43.3487 0.908936C40.3862 0.908936 37.9487 3.27144 37.9487 6.27144C37.9487 9.27144 40.3487 11.6339 43.3487 11.6339C46.3487 11.6339 48.7112 9.23394 48.7112 6.27144Z" fill="#737277"/>
<path d="M24.9737 6.27148C14.8487 6.27148 6.59869 14.484 6.59869 24.6465C6.59869 34.809 14.8112 43.0215 24.9737 43.0215C35.1362 43.0215 43.3487 34.809 43.3487 24.6465C43.3487 14.484 35.0987 6.27148 24.9737 6.27148ZM19.9862 33.7965H12.4862V21.759H14.0237V32.4465H19.9862V33.7965ZM28.3487 33.7965H27.1112V32.5965C26.2862 33.7215 25.4987 34.1715 24.2237 34.1715C22.5362 34.1715 21.4487 33.234 21.4487 31.809V25.134H22.8362V31.2465C22.8362 32.2965 23.5487 32.934 24.6362 32.934C26.0612 32.934 26.9987 31.7715 26.9987 30.009V25.134H28.3487V33.7965ZM27.2237 16.9965C27.2237 14.034 29.6237 11.634 32.5862 11.634C35.5487 11.634 37.9487 14.034 37.9487 16.9965C37.9487 19.959 35.5487 22.359 32.5862 22.359C29.6237 22.359 27.2237 19.959 27.2237 16.9965ZM38.3987 34.0215C37.9487 34.134 37.7237 34.1715 37.4612 34.1715C36.5612 34.1715 36.1487 33.759 36.0362 32.8965C35.0612 33.7965 34.1987 34.1715 33.1112 34.1715C31.3487 34.1715 30.2612 33.1965 30.2612 31.6215C30.2612 30.4965 30.7862 29.709 31.7987 29.2965C32.3237 29.0715 32.6237 29.034 34.5737 28.7715C35.6612 28.6215 35.9987 28.3965 35.9987 27.7965V27.4215C35.9987 26.5965 35.2862 26.1465 34.0487 26.1465C32.7737 26.1465 32.1362 26.634 32.0237 27.684H30.6362C30.6737 26.8215 30.8237 26.334 31.2362 25.884C31.7987 25.2465 32.8487 24.8715 34.1237 24.8715C36.2612 24.8715 37.3862 25.6965 37.3862 27.234V32.334C37.3862 32.7465 37.6487 33.009 38.1362 33.009C38.2112 33.009 38.2862 33.009 38.4362 32.9715L38.3987 34.0215Z" fill="white"/>
<path d="M31.6862 31.584C31.6862 32.4465 32.3237 32.9715 33.3737 32.9715C34.1987 32.9715 34.8737 32.709 35.4362 32.184C35.8487 31.809 35.9987 31.509 35.9987 31.059V29.5215C35.5487 29.7465 35.2487 29.784 33.7862 30.009C32.3237 30.1965 31.6862 30.684 31.6862 31.584Z" fill="white"/>
<path d="M25.8362 48.6089L25.7987 48.0464C26.4737 48.0089 27.1487 47.9714 27.8237 47.8964L27.8987 48.4589C27.2237 48.5339 26.5112 48.5714 25.8362 48.6089ZM23.7362 48.6089C23.0237 48.5714 22.3487 48.4964 21.6362 48.4214L21.7112 47.8589C22.3862 47.9339 23.0612 48.0089 23.7362 48.0464V48.6089ZM29.9612 48.0839L29.8487 47.5589C30.5237 47.4089 31.1612 47.2589 31.8362 47.0339L31.9862 47.5589C31.3487 47.7839 30.6737 47.9714 29.9612 48.0839ZM19.5737 48.0089C18.8987 47.8589 18.2237 47.6714 17.5487 47.4464L17.7362 46.9214C18.3737 47.1464 19.0487 47.2964 19.7237 47.4839L19.5737 48.0089ZM33.9737 46.8839L33.7487 46.3589C34.3862 46.0964 34.9862 45.8339 35.6237 45.4964L35.8862 45.9839C35.2487 46.3214 34.6112 46.6214 33.9737 46.8839ZM15.5987 46.7339C14.9612 46.4714 14.3237 46.1714 13.7237 45.8339L13.9862 45.3464C14.5862 45.6839 15.2237 45.9464 15.8237 46.2464L15.5987 46.7339ZM37.7237 44.9714L37.4237 44.5214C37.9862 44.1464 38.5487 43.7714 39.1112 43.3589L39.4487 43.8089C38.8862 44.2214 38.2862 44.5964 37.7237 44.9714ZM11.9237 44.7464C11.3237 44.3714 10.7612 43.9589 10.2362 43.5464L10.5737 43.0964C11.0987 43.5089 11.6612 43.9214 12.2237 44.2964L11.9237 44.7464ZM41.0612 42.4589L40.6862 42.0464C41.1737 41.5964 41.6987 41.1089 42.1487 40.6214L42.5612 40.9964C42.0737 41.4839 41.5487 41.9714 41.0612 42.4589ZM8.62369 42.1964C8.09869 41.7089 7.61119 41.2214 7.16119 40.6964L7.57369 40.3214C8.02369 40.8089 8.51119 41.3339 8.99869 41.7839L8.62369 42.1964ZM43.9112 39.3839L43.4612 39.0464C43.8737 38.5214 44.2862 37.9589 44.6612 37.3964L45.1112 37.6964C44.7362 38.2589 44.3237 38.8589 43.9112 39.3839ZM5.81119 39.0839C5.39869 38.5214 4.98619 37.9589 4.61119 37.3589L5.06119 37.0589C5.43619 37.6214 5.81119 38.1839 6.22369 38.7464L5.81119 39.0839ZM46.1987 35.8964L45.7112 35.6339C46.0487 35.0339 46.3112 34.3964 46.6112 33.7964L47.0987 33.9839L46.1987 35.8964ZM3.59869 35.5214C3.29869 34.8839 2.99869 34.2464 2.73619 33.6089L3.22369 33.4214C3.48619 34.0589 3.74869 34.6589 4.08619 35.2964L3.59869 35.5214ZM47.8112 32.0339L47.2862 31.8464C47.5112 31.2089 47.6612 30.5339 47.8487 29.8589L48.3737 29.9714C48.2237 30.6839 48.0362 31.3589 47.8112 32.0339ZM2.02369 31.6589C1.83619 30.9839 1.64869 30.3089 1.49869 29.6339L2.02369 29.5214C2.17369 30.1964 2.32369 30.8339 2.54869 31.5089L2.02369 31.6589ZM48.7487 27.9464L48.1862 27.8714C48.2612 27.1964 48.3362 26.5214 48.3737 25.8464L48.9362 25.8839C48.9362 26.5589 48.8612 27.2714 48.7487 27.9464ZM1.16119 27.5714C1.04869 26.8589 1.01119 26.1839 0.973694 25.4714L1.53619 25.4339C1.57369 26.1089 1.61119 26.7839 1.68619 27.4589L1.16119 27.5714ZM48.4112 23.7839C48.3737 23.1089 48.3362 22.4339 48.2612 21.7589L48.8237 21.6839C48.8987 22.3589 48.9737 23.0714 48.9737 23.7839H48.4112ZM1.53619 23.4089L0.973694 23.3714C1.01119 22.6589 1.08619 21.9839 1.16119 21.2714L1.72369 21.3839C1.64869 22.0589 1.57369 22.7339 1.53619 23.4089ZM47.9237 19.7339C47.7737 19.0589 47.6237 18.3839 47.3987 17.7464L47.9237 17.5964C48.1112 18.2714 48.2987 18.9464 48.4487 19.6214L47.9237 19.7339ZM2.09869 19.3589L1.57369 19.2464C1.72369 18.5714 1.91119 17.8964 2.13619 17.2214L2.66119 17.4089C2.43619 18.0464 2.24869 18.6839 2.09869 19.3589ZM46.7237 15.8339C46.4612 15.1964 46.1987 14.5589 45.8612 13.9589L46.3487 13.6964C46.6487 14.3339 46.9487 14.9714 47.2112 15.6089L46.7237 15.8339ZM3.37369 15.4589L2.84869 15.2714C3.11119 14.6339 3.41119 13.9964 3.74869 13.3964L4.23619 13.6589C3.93619 14.2214 3.63619 14.8589 3.37369 15.4589ZM5.28619 11.8589L4.83619 11.5589C5.21119 10.9589 5.62369 10.3964 6.03619 9.87139L6.48619 10.2089C6.03619 10.7339 5.66119 11.2964 5.28619 11.8589ZM7.79869 8.63389L7.38619 8.25889C7.87369 7.73389 8.36119 7.24639 8.88619 6.79639L9.26119 7.20889C8.73619 7.65889 8.24869 8.14639 7.79869 8.63389ZM10.8362 5.89639L10.4987 5.44639C11.0612 5.03389 11.6237 4.62139 12.2237 4.24639L12.5237 4.69639C11.9237 5.10889 11.3612 5.48389 10.8362 5.89639ZM35.9612 3.87139C35.3612 3.57139 34.7237 3.27139 34.1237 3.00889L34.3112 2.48389C34.9487 2.74639 35.5862 3.04639 36.1862 3.38389L35.9612 3.87139ZM14.2862 3.72139L14.0237 3.23389C14.6612 2.93389 15.2987 2.63389 15.9362 2.37139L16.1612 2.85889C15.5237 3.12139 14.8862 3.42139 14.2862 3.72139ZM32.1737 2.29639C31.5362 2.07139 30.8612 1.92139 30.1862 1.77139L30.2987 1.24639C30.9737 1.39639 31.6487 1.58389 32.3237 1.80889L32.1737 2.29639ZM18.0737 2.18389L17.9237 1.65889C18.5987 1.47139 19.2737 1.28389 19.9487 1.13389L20.0612 1.65889C19.3862 1.80889 18.7112 1.99639 18.0737 2.18389ZM28.1987 1.35889C27.5237 1.28389 26.8487 1.20889 26.1737 1.17139L26.2112 0.608887C26.9237 0.646387 27.5987 0.721387 28.3112 0.796387L28.1987 1.35889ZM22.0862 1.32139L22.0112 0.758887C22.6862 0.683887 23.3987 0.608887 24.1112 0.608887L24.1487 1.17139C23.4362 1.17139 22.7612 1.24639 22.0862 1.32139Z" fill="white"/>
</g>
<defs>
<clipPath id="clip0_752_834">
<rect width="48" height="48" fill="white" transform="translate(0.973694 0.608887)"/>
</clipPath>
</defs>
</svg>
