<svg width="49" height="49" viewBox="0 0 49 49" fill="none" xmlns="http://www.w3.org/2000/svg">
<path d="M42.7891 11.9841L26.2528 2.38227C25.2099 1.78827 23.852 1.78827 22.8009 2.38227L6.08788 11.9841C5.01163 12.6033 4.25 13.7669 4.25 15.0115V34.1898C4.25 35.4344 5.0315 36.5984 6.10775 37.2209L10.5234 39.7289C12.6339 40.7684 13.3798 40.7684 14.3401 40.7684C17.465 40.7684 19.25 38.8788 19.25 35.5829V16.6491C19.25 16.3818 19.1109 15.9839 18.8484 15.9839H16.7397C16.4727 15.9839 15.875 16.3818 15.875 16.6488V35.5825C15.875 37.0435 14.5535 38.4974 12.0837 37.2625L7.52112 34.6326C7.36212 34.5464 7.25 34.3728 7.25 34.1898V15.0115C7.25 14.8308 7.45813 14.6493 7.61825 14.5566L24.2772 4.97127C24.4329 4.88314 24.6616 4.88314 24.8169 4.97127L41.2726 14.5544C41.4301 14.6493 41.3746 14.8251 41.3746 15.0115V34.1898C41.3746 34.3728 41.4432 34.5509 41.2876 34.639L24.7554 44.23C24.6136 44.3151 24.4377 44.3151 24.2825 44.23L20.0424 41.6991C19.9145 41.6249 19.7626 41.5983 19.64 41.6669C18.4603 42.3355 18.2427 42.4244 17.1361 42.808C16.8639 42.9029 16.4622 43.0675 17.2899 43.5314L22.8391 46.8141C23.3689 47.1201 23.9699 47.2813 24.5818 47.2814C25.1975 47.2814 25.8005 47.1216 26.3319 46.8141L42.7887 37.2209C43.865 36.5939 44.375 35.4344 44.375 34.1898V15.0115C44.375 13.7669 43.865 12.6063 42.7891 11.9841ZM29.7163 31.1508C25.319 31.1508 24.3504 29.9376 24.0275 27.751C23.99 27.5155 23.7901 27.2339 23.5505 27.2339H21.4014C21.1355 27.2339 20.9218 27.5564 20.9218 27.8211C20.9218 30.6209 22.4439 34.0131 29.7166 34.0131C34.9813 34.0131 37.9996 31.9675 37.9996 28.3473C37.9996 24.7578 35.5745 23.8158 30.4689 23.14C25.3081 22.4579 24.7839 22.1133 24.7839 20.9043C24.7839 19.9075 25.2279 18.5781 29.0491 18.5781C32.4635 18.5781 33.722 19.3109 34.2399 21.6123C34.2841 21.8286 34.4817 21.9839 34.7049 21.9839H36.8626C36.9954 21.9839 37.1221 21.9303 37.2151 21.8354C37.3051 21.7334 37.3527 21.6055 37.3407 21.4683C37.0066 17.5053 34.3737 15.6584 29.0487 15.6584C24.3121 15.6584 21.4865 17.6586 21.4865 21.0115C21.4865 24.6483 24.2979 25.6533 28.8447 26.1029C34.2841 26.6361 34.7071 27.4311 34.7071 28.501C34.7071 30.3591 33.2154 31.1508 29.7163 31.1508Z" fill="white"/>
</svg>
