<svg width="32" height="32" viewBox="0 0 32 32" fill="none" xmlns="http://www.w3.org/2000/svg">
<path d="M4.00101 1.49805C2.76402 1.49805 2.11433 2.15614 1.8047 2.7754C1.49505 3.39466 1.50197 4.00099 1.50197 4.00099V27.9992C1.50197 27.9992 1.49507 28.6055 1.8047 29.2248C2.11433 29.8441 2.7523 30.4983 4.00101 30.4983H27.9992C29.2479 30.4983 29.8859 29.8441 30.1955 29.2248C30.5052 28.6055 30.4983 27.9992 30.4983 27.9992V4.00099C30.4983 4.00099 30.5052 3.39466 30.1955 2.7754C29.8859 2.15614 29.2362 1.49805 27.9992 1.49805H4.00101ZM4.00101 2.49903H27.9992C28.7544 2.49903 29.1157 2.84817 29.3029 3.22267C29.4933 3.60342 29.5022 4.00099 29.5022 4.00099V27.9992C29.5022 27.9992 29.4934 28.3939 29.3029 28.7746C29.1126 29.1554 28.7583 29.5022 27.9992 29.5022H4.00101C3.24189 29.5022 2.88766 29.1554 2.69729 28.7746C2.50685 28.3939 2.49807 27.9992 2.49807 27.9992V4.00099C2.49807 4.00099 2.50691 3.60342 2.69729 3.22267C2.88453 2.84817 3.2458 2.49903 4.00101 2.49903Z" fill="#008DA5"/>
<path d="M23.0001 8.99811C22.3729 8.99837 21.6636 9.13127 21.0646 9.51569C20.465 9.9005 20.0011 10.5449 20.0011 11.5011C20.0011 11.9038 20.1483 12.2829 20.3517 12.6934C20.5199 13.0329 20.7553 13.4004 21.0011 13.6944V15.4982L10.501 15.5001C10.2248 15.4991 9.9991 15.7219 9.9981 15.9982V18.4962C9.99818 18.6257 10.0488 18.7507 10.1387 18.8439C10.3547 19.0704 10.5879 19.417 10.752 19.7482C10.9161 20.0794 10.9991 20.4228 10.9991 20.4972C10.9991 21.0441 10.7679 21.4016 10.3936 21.6417C10.0198 21.8816 9.47644 21.9989 9.00005 21.9992C8.52366 21.9989 7.98025 21.8816 7.60648 21.6418C7.23222 21.4016 7.00101 21.0441 7.00101 20.4972C7.00101 20.4228 7.08399 20.0794 7.24808 19.7482C7.41217 19.417 7.6454 19.0704 7.86137 18.8439C7.95127 18.7507 8.00192 18.6257 8.002 18.4962V15.9982C8.001 15.7219 7.77529 15.499 7.49906 15.5001H2V16.5001H7.00101V18.3038C6.75518 18.5978 6.51976 18.9654 6.35159 19.3048C6.14818 19.7154 6.001 20.0945 6.001 20.4972C6.001 21.4533 6.46489 22.0978 7.06449 22.4826C7.66349 22.867 8.37278 22.9999 9.00005 23.0002C9.62732 22.9999 10.3366 22.867 10.9356 22.4826C11.5352 22.0978 11.9991 21.4533 11.9991 20.4972C11.9991 20.0945 11.8519 19.7154 11.6485 19.3048C11.4803 18.9654 11.2449 18.5978 10.9991 18.3038V16.5001L21.4992 16.4982C21.7754 16.4992 22.0011 16.2763 22.0021 16.0001V13.502C22.002 13.3726 21.9514 13.2475 21.8615 13.1544C21.6455 12.9279 21.4123 12.5813 21.2482 12.2501C21.0841 11.9189 21.0011 11.5754 21.0011 11.5011C21.0011 10.9542 21.2323 10.5967 21.6066 10.3565C21.9803 10.1166 22.5238 9.9994 23.0001 9.99909C23.4765 9.9994 24.0199 10.1166 24.3937 10.3565C24.768 10.5967 24.9992 10.9542 24.9992 11.5011C24.9992 11.5754 24.9162 11.9189 24.7521 12.2501C24.588 12.5813 24.3548 12.9279 24.1388 13.1544C24.0489 13.2475 23.9983 13.3726 23.9982 13.502V16.0001C23.9992 16.2763 24.2249 16.4992 24.5011 16.4982H30.0002V15.4982H24.9992V13.6944C25.245 13.4004 25.4804 13.0329 25.6486 12.6934C25.852 12.2829 25.9992 11.9038 25.9992 11.5011C25.9992 10.5449 25.5353 9.9005 24.9357 9.51569C24.3367 9.13127 23.6274 8.99837 23.0001 8.99811Z" fill="#008DA5"/>
<path d="M9.00018 9.0002C9.00045 9.62747 9.13334 10.3368 9.51777 10.9358C9.90259 11.5354 10.547 11.9993 11.5032 11.9993C11.9059 11.9993 12.285 11.8521 12.6956 11.6487C13.035 11.4805 13.4026 11.2451 13.6966 10.9993H15.5003L15.5023 21.4995C15.5012 21.7757 15.7241 22.0014 16.0003 22.0024H18.4984C18.6279 22.0023 18.7529 21.9517 18.8461 21.8618C19.0726 21.6458 19.4192 21.4126 19.7504 21.2485C20.0816 21.0844 20.425 21.0014 20.4994 21.0014C21.0463 21.0014 21.4038 21.2326 21.644 21.6069C21.8839 21.9807 22.0011 22.5241 22.0014 23.0005C22.0011 23.4769 21.8839 24.0203 21.644 24.3941C21.4038 24.7683 21.0463 24.9995 20.4994 24.9995C20.425 24.9995 20.0816 24.9166 19.7504 24.7525C19.4192 24.5884 19.0726 24.3552 18.8461 24.1392C18.7529 24.0493 18.6279 23.9986 18.4984 23.9986H16.0003C15.7241 23.9996 15.5012 24.2253 15.5023 24.5015V30.0006H16.5023V24.9996H18.306C18.6 25.2454 18.9676 25.4808 19.307 25.649C19.7176 25.8524 20.0967 25.9996 20.4994 25.9996C21.4556 25.9996 22.1 25.5357 22.4848 24.9361C22.8693 24.3371 23.0021 23.6278 23.0024 23.0005C23.0021 22.3732 22.8693 21.6639 22.4848 21.0649C22.1 20.4653 21.4556 20.0014 20.4994 20.0014C20.0967 20.0014 19.7176 20.1486 19.307 20.352C18.9676 20.5202 18.6 20.7556 18.306 21.0014H16.5023L16.5003 10.5012C16.5014 10.225 16.2785 9.99927 16.0023 9.99827H13.5042C13.3747 9.99834 13.2497 10.049 13.1565 10.1389C12.93 10.3549 12.5834 10.5881 12.2522 10.7522C11.921 10.9163 11.5776 10.9993 11.5032 10.9993C10.9563 10.9993 10.5988 10.7681 10.3586 10.3938C10.1187 10.02 10.0015 9.47659 10.0012 9.0002C10.0015 8.5238 10.1187 7.98039 10.3586 7.60662C10.5988 7.23235 10.9563 7.00114 11.5032 7.00114C11.5776 7.00114 11.921 7.08412 12.2522 7.24821C12.5834 7.4123 12.93 7.64553 13.1565 7.8615C13.2497 7.9514 13.3747 8.00206 13.5042 8.00213H16.0023C16.2785 8.00113 16.5014 7.77543 16.5003 7.49919V2.00006H15.5003V7.00114H13.6966C13.4026 6.7553 13.035 6.51988 12.6956 6.35171C12.285 6.14829 11.9059 6.00112 11.5032 6.00112C10.547 6.00112 9.90259 6.465 9.51777 7.06461C9.13334 7.66362 9.00045 8.37292 9.00018 9.0002Z" fill="#008DA5"/>
</svg>
