<svg width="49" height="49" viewBox="0 0 49 49" fill="none" xmlns="http://www.w3.org/2000/svg">
<path d="M24.7453 5.20196C23.1621 5.20946 21.6508 5.34408 20.3203 5.57958C16.4016 6.27183 15.6906 7.72083 15.6906 10.3935V13.9226H24.9505V15.099H12.2151C9.52408 15.099 7.16758 16.7163 6.43033 19.7943C5.57983 23.3212 5.54233 25.5225 6.43033 29.2053C7.08846 31.947 8.66046 33.9 11.3518 33.9H14.536V29.6692C14.536 26.6126 17.1801 23.9167 20.3207 23.9167H29.5701C32.1448 23.9167 34.1998 21.7965 34.1998 19.2112V10.3938C34.1998 7.88396 32.0826 5.99883 29.5701 5.57996C27.9786 5.31521 26.3282 5.19483 24.7453 5.20196ZM19.7376 8.04033C20.6938 8.04033 21.4753 8.83421 21.4753 9.81071C21.4753 10.7831 20.6942 11.5695 19.7376 11.5695C18.7776 11.5695 18.0002 10.7831 18.0002 9.81071C17.9998 8.83421 18.7776 8.04033 19.7376 8.04033Z" fill="#737277"/>
<path d="M35.3544 15.099V19.2113C35.3544 22.3988 32.6514 25.0819 29.5697 25.0819H20.3203C17.7868 25.0819 15.6906 27.2505 15.6906 29.7878V38.6059C15.6906 41.115 17.8723 42.5914 20.3203 43.311C23.2513 44.1724 26.0623 44.3284 29.5697 43.311C31.9007 42.6356 34.1994 41.2774 34.1994 38.6059V35.0764H24.9504V33.8996H38.8299C41.5209 33.8996 42.5244 32.0228 43.4604 29.205C44.4272 26.3044 44.3855 23.5148 43.4604 19.794C42.7952 17.1146 41.525 15.0986 38.8299 15.0986L35.3544 15.099ZM30.1521 37.4291C31.1124 37.4291 31.8898 38.2155 31.8898 39.1886C31.8898 40.1644 31.1121 40.9583 30.1521 40.9583C29.1958 40.9583 28.4147 40.1644 28.4147 39.1886C28.4147 38.2155 29.1958 37.4291 30.1521 37.4291Z" fill="white"/>
<path opacity="0.444" d="M37.4646 45.4576C37.4646 46.7863 31.9086 47.8636 25.0554 47.8636C18.2019 47.8636 12.6459 46.7863 12.6459 45.4576C12.6459 44.1286 18.2016 43.0513 25.0554 43.0513C31.9086 43.0513 37.4646 44.1283 37.4646 45.4576Z" fill="url(#paint0_radial_752_828)"/>
<defs>
<radialGradient id="paint0_radial_752_828" cx="0" cy="0" r="1" gradientUnits="userSpaceOnUse" gradientTransform="translate(25.0053 45.3887) rotate(-90) scale(2.40687 10.5802)">
<stop stop-color="#B8B8B8" stop-opacity="0.498"/>
<stop offset="1" stop-color="#7F7F7F" stop-opacity="0"/>
</radialGradient>
</defs>
</svg>
