<svg width="259" height="259" viewBox="0 0 259 259" fill="none" xmlns="http://www.w3.org/2000/svg">
<g clip-path="url(#clip0_745_489)">
<rect x="0.307861" width="258.696" height="258.696" rx="49.2754" fill="#1A191C"/>
<rect width="258.696" height="46.1957" transform="translate(0.307861 46.1957)" fill="#008DA5"/>
<path fill-rule="evenodd" clip-rule="evenodd" d="M85.2806 64.0495L92.5334 56.9747L95.7906 64.5766L92.2443 68.0356L90.7749 64.0495H85.2806ZM78.8405 65.4202L81.6962 73.1676H86.9814L91.1321 69.1198L89.7683 65.4202H78.8405ZM92.7731 69.4707L96.9275 65.4202H102.213L105.068 73.1676H94.1361L92.7731 69.4707ZM91.3755 81.6124L88.1184 74.0104L91.6617 70.555L93.1296 74.5375H98.6298L91.3755 81.6124ZM141.774 65.4023V63.3133H139.381V75.2745H141.827V69.2817C141.827 66.6456 143.205 65.4274 145.26 65.4274H146.265V63.314H145.451C144.176 63.314 142.684 63.5618 141.774 65.4023ZM153.921 69.2681C153.921 65.5205 156.755 62.9631 159.9 62.9631C163.748 62.9631 165.906 65.4947 165.906 69.2187C165.906 69.5166 165.88 69.8145 165.854 69.9635H156.443C156.495 72.0983 158.107 73.5879 160.212 73.5879C161.847 73.5879 162.821 72.8947 163.383 71.9243H165.811C165.094 74.0112 163.101 75.6483 160.212 75.6483C156.859 75.6483 153.921 73.3151 153.921 69.2681ZM159.926 65.0235C157.872 65.0235 156.624 66.5381 156.52 68.0771H163.357C163.306 66.3641 162.136 65.0235 159.926 65.0235ZM179.919 63.3391H177.591V75.2737H179.919V63.3391ZM177.04 60.5325C177.04 59.6115 177.803 58.8846 178.742 58.8846C179.708 58.8846 180.471 59.6359 180.471 60.5325C180.471 61.4291 179.682 62.1567 178.742 62.1567C177.803 62.1567 177.04 61.4535 177.04 60.5325ZM149.756 59.5335H147.311V72.9913C147.311 74.2518 148.38 75.2737 149.698 75.2737H153.329V73.1604H149.756V65.4266H153.329V63.3133H149.756V59.5342L149.756 59.5335ZM116.411 69.2931C116.411 72.003 118.208 73.4891 120.226 73.4891C122.057 73.4891 122.912 72.5688 123.301 71.9243H125.857C125.261 73.6373 123.47 75.6483 120.226 75.6483C116.593 75.6483 113.92 73.0164 113.92 69.2931C113.92 65.5699 116.646 62.9631 120.201 62.9631C123.522 62.9631 125.235 64.949 125.754 66.7616H123.189C122.702 65.8871 121.793 65.123 120.201 65.123C118.228 65.123 116.411 66.5832 116.411 69.2931ZM172.979 68.4001L170.958 67.9783C169.999 67.7799 169.532 67.2586 169.532 66.5381C169.532 65.7188 170.286 64.9497 171.531 64.9497C173.266 64.9497 173.865 65.9874 173.991 66.6849H176.259C175.948 64.4312 174.32 62.9638 171.531 62.9638C169.096 62.9638 167.175 64.7019 167.175 66.7372C167.175 68.4259 168.342 69.6913 170.285 70.0888L172.409 70.5356C173.446 70.7591 174.017 71.3299 174.017 72.0746C174.017 72.919 173.264 73.6631 171.891 73.6631C170.372 73.6631 169.432 72.924 169.102 71.925H166.68C167.142 74.4602 169.003 75.649 171.865 75.649C174.949 75.649 176.426 73.6381 176.426 71.9501C176.426 70.2621 175.235 68.8714 172.979 68.4001ZM127.137 66.7616C127.354 64.8065 129.278 62.9638 132.238 62.9638C135.974 62.9638 137.427 64.9999 137.427 67.333V75.2766H135.067V73.6631C134.521 74.5075 133.276 75.649 131.045 75.649C128.502 75.649 126.867 73.961 126.867 72.074C126.867 69.9391 128.502 68.7475 130.655 68.4502L134.027 67.9783C134.78 67.8788 134.987 67.5064 134.987 67.0845C134.987 65.9179 134.184 64.9497 132.29 64.9497C130.833 64.9497 129.921 65.6859 129.586 66.7616H127.137ZM131.382 73.6882C133.379 73.6882 134.988 72.7694 134.988 70.1633L134.987 69.6169L131.174 70.1633C130.137 70.3122 129.357 70.883 129.357 71.9501C129.357 72.8438 130.137 73.6882 131.382 73.6882Z" fill="white"/>
<g clip-path="url(#clip1_745_489)">
<rect width="92.3913" height="57.2551" transform="translate(0.307861 95.471)" fill="white"/>
<path d="M15.1796 128.746C14.5965 128.746 14.0668 128.636 13.5905 128.414C13.1142 128.192 12.7118 127.896 12.3833 127.527C12.0547 127.149 11.8207 126.734 11.6811 126.283L12.568 125.95C12.7816 126.574 13.1142 127.051 13.5659 127.379C14.0176 127.699 14.5555 127.859 15.1796 127.859C15.5738 127.859 15.9188 127.798 16.2144 127.675C16.5183 127.543 16.7523 127.363 16.9166 127.133C17.0808 126.903 17.163 126.636 17.163 126.332C17.163 125.88 17.0398 125.531 16.7934 125.285C16.547 125.038 16.1939 124.85 15.734 124.718L14.0833 124.225C13.4345 124.036 12.9335 123.72 12.5804 123.277C12.2354 122.833 12.063 122.328 12.063 121.762C12.063 121.277 12.182 120.85 12.4202 120.48C12.6584 120.103 12.9828 119.807 13.3934 119.593C13.8122 119.38 14.2845 119.273 14.8101 119.273C15.3603 119.273 15.8531 119.376 16.2883 119.581C16.7318 119.778 17.1055 120.041 17.4093 120.37C17.7132 120.698 17.9308 121.064 18.0622 121.466L17.1999 121.811C17.0028 121.269 16.6948 120.858 16.276 120.579C15.8654 120.3 15.3808 120.16 14.8224 120.16C14.4692 120.16 14.1572 120.222 13.8861 120.345C13.6233 120.468 13.418 120.645 13.2702 120.875C13.1224 121.105 13.0485 121.376 13.0485 121.688C13.0485 122.065 13.1676 122.406 13.4057 122.71C13.6439 123.006 14.0093 123.228 14.5021 123.375L15.9557 123.807C16.6784 124.02 17.2246 124.328 17.5941 124.73C17.9637 125.133 18.1485 125.638 18.1485 126.246C18.1485 126.738 18.0212 127.174 17.7666 127.551C17.5202 127.921 17.1712 128.213 16.7195 128.426C16.276 128.64 15.7627 128.746 15.1796 128.746ZM22.9218 128.746C22.3059 128.746 21.7474 128.599 21.2465 128.303C20.7537 127.999 20.3636 127.584 20.0762 127.059C19.7887 126.533 19.645 125.938 19.645 125.272C19.645 124.607 19.7846 124.02 20.0639 123.511C20.3431 122.993 20.7209 122.587 21.1972 122.291C21.6817 121.996 22.2238 121.848 22.8233 121.848C23.2996 121.848 23.7226 121.938 24.0921 122.119C24.4699 122.291 24.7902 122.529 25.053 122.833C25.3158 123.129 25.517 123.466 25.6566 123.843C25.7962 124.213 25.866 124.595 25.866 124.989C25.866 125.071 25.8619 125.166 25.8537 125.272C25.8455 125.371 25.8332 125.474 25.8168 125.58H20.2363V124.718H25.287L24.8436 125.088C24.9175 124.636 24.8641 124.234 24.6834 123.88C24.511 123.519 24.2605 123.236 23.932 123.03C23.6035 122.817 23.2339 122.71 22.8233 122.71C22.4126 122.71 22.0308 122.817 21.6776 123.03C21.3327 123.244 21.0617 123.544 20.8646 123.93C20.6675 124.308 20.5895 124.759 20.6305 125.285C20.5895 125.81 20.6716 126.27 20.8769 126.665C21.0904 127.051 21.3779 127.35 21.7392 127.564C22.1088 127.777 22.503 127.884 22.9218 127.884C23.4064 127.884 23.8129 127.769 24.1414 127.539C24.4699 127.309 24.7368 127.022 24.9421 126.677L25.7305 127.096C25.5991 127.391 25.3979 127.666 25.1269 127.921C24.8559 128.167 24.5315 128.369 24.1537 128.525C23.7841 128.672 23.3735 128.746 22.9218 128.746ZM32.8907 131.062V127.12L33.0385 127.256C32.8085 127.732 32.4636 128.102 32.0037 128.365C31.552 128.619 31.0428 128.746 30.4762 128.746C29.8602 128.746 29.3059 128.599 28.8131 128.303C28.3204 127.999 27.9303 127.588 27.6428 127.071C27.3636 126.545 27.224 125.954 27.224 125.297C27.224 124.632 27.3636 124.041 27.6428 123.523C27.9303 123.006 28.3163 122.599 28.8008 122.304C29.2936 122 29.852 121.848 30.4762 121.848C31.0428 121.848 31.5479 121.971 31.9914 122.217C32.4349 122.464 32.7839 122.796 33.0385 123.215L32.8907 123.474V121.996H33.8146V131.062H32.8907ZM30.5254 127.822C30.9689 127.822 31.3672 127.712 31.7204 127.49C32.0817 127.268 32.3651 126.968 32.5704 126.591C32.7839 126.205 32.8907 125.773 32.8907 125.297C32.8907 124.821 32.7839 124.394 32.5704 124.016C32.3651 123.63 32.0817 123.326 31.7204 123.104C31.3672 122.883 30.9689 122.772 30.5254 122.772C30.0902 122.772 29.696 122.883 29.3428 123.104C28.9897 123.326 28.7105 123.626 28.5051 124.004C28.308 124.381 28.2095 124.813 28.2095 125.297C28.2095 125.773 28.308 126.205 28.5051 126.591C28.7105 126.968 28.9856 127.268 29.3305 127.49C29.6837 127.712 30.082 127.822 30.5254 127.822ZM38.0522 128.746C37.5923 128.746 37.1734 128.64 36.7956 128.426C36.4179 128.204 36.1181 127.901 35.8964 127.515C35.6828 127.12 35.5761 126.669 35.5761 126.159V121.996H36.5V126.049C36.5 126.402 36.5698 126.714 36.7094 126.985C36.8572 127.248 37.0584 127.453 37.313 127.601C37.5758 127.749 37.8756 127.822 38.2123 127.822C38.549 127.822 38.8488 127.749 39.1116 127.601C39.3744 127.445 39.5797 127.227 39.7275 126.948C39.8753 126.66 39.9493 126.32 39.9493 125.925V121.996H40.8732V128.599H39.9493V127.317L40.1587 127.367C40.0026 127.794 39.7357 128.13 39.358 128.377C38.9802 128.623 38.5449 128.746 38.0522 128.746ZM45.7791 128.746C45.1631 128.746 44.6047 128.599 44.1037 128.303C43.6109 127.999 43.2208 127.584 42.9334 127.059C42.646 126.533 42.5022 125.938 42.5022 125.272C42.5022 124.607 42.6419 124.02 42.9211 123.511C43.2003 122.993 43.5781 122.587 44.0544 122.291C44.539 121.996 45.081 121.848 45.6805 121.848C46.1568 121.848 46.5798 121.938 46.9493 122.119C47.3271 122.291 47.6474 122.529 47.9102 122.833C48.173 123.129 48.3742 123.466 48.5138 123.843C48.6535 124.213 48.7233 124.595 48.7233 124.989C48.7233 125.071 48.7192 125.166 48.7109 125.272C48.7027 125.371 48.6904 125.474 48.674 125.58H43.0935V124.718H48.1443L47.7008 125.088C47.7747 124.636 47.7213 124.234 47.5406 123.88C47.3682 123.519 47.1177 123.236 46.7892 123.03C46.4607 122.817 46.0911 122.71 45.6805 122.71C45.2699 122.71 44.888 122.817 44.5349 123.03C44.1899 123.244 43.9189 123.544 43.7218 123.93C43.5247 124.308 43.4467 124.759 43.4877 125.285C43.4467 125.81 43.5288 126.27 43.7341 126.665C43.9477 127.051 44.2351 127.35 44.5964 127.564C44.966 127.777 45.3602 127.884 45.7791 127.884C46.2636 127.884 46.6701 127.769 46.9986 127.539C47.3271 127.309 47.594 127.022 47.7993 126.677L48.5877 127.096C48.4563 127.391 48.2551 127.666 47.9841 127.921C47.7131 128.167 47.3887 128.369 47.0109 128.525C46.6414 128.672 46.2307 128.746 45.7791 128.746ZM50.3522 128.599V121.996H51.2761V123.277L51.0667 123.228C51.231 122.801 51.4979 122.464 51.8674 122.217C52.2452 121.971 52.6805 121.848 53.1732 121.848C53.6414 121.848 54.0602 121.955 54.4298 122.168C54.8075 122.382 55.1032 122.677 55.3167 123.055C55.5385 123.425 55.6493 123.843 55.6493 124.312V128.599H54.7254V124.669C54.7254 124.266 54.6515 123.926 54.5037 123.646C54.3641 123.367 54.1629 123.154 53.9001 123.006C53.6455 122.85 53.3498 122.772 53.0131 122.772C52.6764 122.772 52.3766 122.85 52.1138 123.006C51.851 123.154 51.6457 123.371 51.4979 123.659C51.3501 123.938 51.2761 124.275 51.2761 124.669V128.599H50.3522ZM60.432 128.746C59.7832 128.746 59.2125 128.594 58.7197 128.291C58.227 127.987 57.841 127.576 57.5617 127.059C57.2825 126.533 57.1429 125.942 57.1429 125.285C57.1429 124.628 57.2825 124.041 57.5617 123.523C57.841 123.006 58.227 122.599 58.7197 122.304C59.2125 122 59.7832 121.848 60.432 121.848C60.8427 121.848 61.2286 121.922 61.59 122.07C61.9513 122.217 62.2716 122.419 62.5509 122.673C62.8301 122.92 63.0395 123.207 63.1791 123.536L62.3414 123.967C62.1772 123.614 61.9267 123.326 61.59 123.104C61.2533 122.883 60.8673 122.772 60.432 122.772C59.9968 122.772 59.6026 122.883 59.2494 123.104C58.9045 123.318 58.6294 123.618 58.4241 124.004C58.227 124.381 58.1284 124.813 58.1284 125.297C58.1284 125.773 58.227 126.205 58.4241 126.591C58.6294 126.968 58.9045 127.268 59.2494 127.49C59.6026 127.712 59.9968 127.822 60.432 127.822C60.8673 127.822 61.2492 127.712 61.5777 127.49C61.9144 127.268 62.169 126.972 62.3414 126.603L63.1791 127.059C63.0395 127.379 62.8301 127.666 62.5509 127.921C62.2716 128.176 61.9513 128.377 61.59 128.525C61.2286 128.672 60.8427 128.746 60.432 128.746ZM64.8004 128.599V121.996H65.7243V128.599H64.8004ZM64.8004 120.776V119.421H65.7243V120.776H64.8004ZM67.6155 128.599V121.996H68.5394V123.277L68.3299 123.228C68.4942 122.801 68.7611 122.464 69.1307 122.217C69.5084 121.971 69.9437 121.848 70.4365 121.848C70.9046 121.848 71.3234 121.955 71.693 122.168C72.0708 122.382 72.3664 122.677 72.5799 123.055C72.8017 123.425 72.9126 123.843 72.9126 124.312V128.599H71.9886V124.669C71.9886 124.266 71.9147 123.926 71.7669 123.646C71.6273 123.367 71.4261 123.154 71.1633 123.006C70.9087 122.85 70.613 122.772 70.2763 122.772C69.9396 122.772 69.6398 122.85 69.377 123.006C69.1142 123.154 68.9089 123.371 68.7611 123.659C68.6133 123.938 68.5394 124.275 68.5394 124.669V128.599H67.6155ZM77.8061 131.309C77.3544 131.309 76.9356 131.239 76.5496 131.099C76.1718 130.96 75.8433 130.767 75.5641 130.52C75.2931 130.282 75.0837 130.003 74.9358 129.683L75.7858 129.227C75.9172 129.539 76.1513 129.81 76.488 130.04C76.8247 130.27 77.2559 130.385 77.7815 130.385C78.1839 130.385 78.5535 130.307 78.8902 130.151C79.2269 129.995 79.4979 129.765 79.7032 129.461C79.9085 129.157 80.0112 128.783 80.0112 128.34V126.874L80.159 127.009C79.9291 127.486 79.5882 127.855 79.1366 128.118C78.6849 128.373 78.1921 128.5 77.6583 128.5C77.0423 128.5 76.488 128.352 75.9952 128.057C75.5025 127.761 75.1124 127.363 74.825 126.862C74.5457 126.352 74.4061 125.79 74.4061 125.174C74.4061 124.55 74.5457 123.987 74.825 123.486C75.1124 122.985 75.4984 122.587 75.9829 122.291C76.4757 121.996 77.0341 121.848 77.6583 121.848C78.1921 121.848 78.6766 121.971 79.1119 122.217C79.5554 122.464 79.9044 122.796 80.159 123.215L80.0112 123.474V121.996H80.9351V128.34C80.9351 128.907 80.7996 129.412 80.5286 129.855C80.2658 130.307 79.8962 130.66 79.4199 130.915C78.9518 131.177 78.4138 131.309 77.8061 131.309ZM77.7076 127.576C78.1346 127.576 78.5206 127.469 78.8655 127.256C79.2105 127.034 79.4856 126.743 79.6909 126.381C79.9044 126.012 80.0112 125.609 80.0112 125.174C80.0112 124.739 79.9044 124.34 79.6909 123.979C79.4856 123.609 79.2105 123.318 78.8655 123.104C78.5206 122.883 78.1346 122.772 77.7076 122.772C77.2723 122.772 76.8781 122.883 76.525 123.104C76.1718 123.318 75.8926 123.605 75.6873 123.967C75.4902 124.328 75.3916 124.73 75.3916 125.174C75.3916 125.609 75.4902 126.012 75.6873 126.381C75.8926 126.743 76.1677 127.034 76.5126 127.256C76.8658 127.469 77.2641 127.576 77.7076 127.576Z" fill="#1A191C"/>
<rect width="163.225" height="57.2551" transform="translate(95.7789 95.471)" fill="white"/>
<g clip-path="url(#clip2_745_489)">
<path d="M136.83 119.864V120.947H132.834V123.554H136.653V124.637H132.834V127.345H136.83V128.428H131.649V119.864H136.83ZM138.223 128.025C137.798 127.672 137.569 127.198 137.536 126.601H138.695C138.729 126.896 138.853 127.13 139.067 127.307C139.281 127.483 139.54 127.571 139.842 127.571C140.145 127.571 140.392 127.504 140.561 127.37C140.729 127.236 140.813 127.072 140.813 126.879C140.813 126.635 140.712 126.452 140.51 126.331C140.309 126.209 139.993 126.085 139.565 125.959C139.17 125.841 138.845 125.722 138.588 125.6C138.33 125.477 138.105 125.293 137.933 125.065C137.752 124.83 137.662 124.519 137.662 124.133C137.662 123.839 137.742 123.56 137.901 123.296C138.061 123.031 138.294 122.817 138.601 122.653C138.908 122.49 139.275 122.408 139.704 122.408C140.309 122.408 140.804 122.571 141.191 122.899C141.577 123.226 141.8 123.684 141.859 124.272H140.699C140.657 123.995 140.55 123.778 140.378 123.623C140.206 123.468 139.981 123.39 139.704 123.39C139.451 123.39 139.241 123.457 139.073 123.592C138.905 123.726 138.821 123.906 138.821 124.133C138.821 124.36 138.92 124.544 139.118 124.662C139.315 124.78 139.628 124.906 140.056 125.04C140.452 125.149 140.779 125.265 141.04 125.386C141.302 125.509 141.529 125.695 141.701 125.928C141.882 126.167 141.972 126.484 141.972 126.879C141.975 127.189 141.878 127.491 141.695 127.741C141.51 127.998 141.256 128.196 140.933 128.339C140.609 128.482 140.246 128.554 139.842 128.554C139.187 128.554 138.647 128.377 138.223 128.025ZM147.483 122.773C147.916 123.017 148.263 123.371 148.523 123.837C148.784 124.303 148.914 124.851 148.914 125.481C148.914 126.11 148.784 126.658 148.523 127.124C148.263 127.59 147.916 127.945 147.483 128.188C147.055 128.431 146.57 128.557 146.078 128.554C145.658 128.554 145.273 128.472 144.925 128.308C144.585 128.152 144.295 127.906 144.086 127.596V130.896H142.927V122.534H143.948L144.049 123.428C144.257 123.102 144.551 122.84 144.9 122.672C145.257 122.496 145.649 122.408 146.078 122.408C146.582 122.408 147.05 122.529 147.483 122.773ZM146.841 127.256C147.122 127.097 147.345 126.864 147.508 126.557C147.673 126.251 147.754 125.892 147.754 125.481C147.754 125.07 147.673 124.711 147.508 124.404C147.345 124.097 147.122 123.864 146.841 123.705C146.558 123.545 146.239 123.463 145.914 123.465C145.591 123.463 145.273 123.548 144.994 123.711C144.709 123.875 144.479 124.11 144.307 124.417C144.135 124.723 144.049 125.078 144.049 125.481C144.049 125.884 144.135 126.238 144.307 126.545C144.479 126.852 144.709 127.086 144.994 127.25C145.273 127.412 145.591 127.497 145.914 127.495C146.238 127.497 146.558 127.415 146.841 127.256ZM149.745 124.7C149.745 123.986 149.946 123.426 150.349 123.019C150.753 122.611 151.282 122.408 151.938 122.408C152.148 122.408 152.362 122.437 152.581 122.496V123.554C152.505 123.545 152.354 123.541 152.127 123.541C151.732 123.541 151.429 123.65 151.219 123.869C151.009 124.087 150.904 124.456 150.904 124.977V128.428H149.745V124.7ZM158.613 125.934H154.038C154.121 126.413 154.325 126.792 154.649 127.074C154.972 127.355 155.361 127.495 155.815 127.495C156.546 127.495 157.041 127.219 157.302 126.664H158.487C158.31 127.236 157.981 127.693 157.497 128.037C157.014 128.382 156.453 128.553 155.815 128.553C155.251 128.553 154.743 128.423 154.29 128.163C153.836 127.903 153.481 127.54 153.224 127.074C152.968 126.608 152.84 126.077 152.84 125.481C152.84 124.884 152.966 124.353 153.218 123.887C153.461 123.431 153.828 123.053 154.277 122.798C154.731 122.538 155.243 122.408 155.815 122.408C156.327 122.408 156.8 122.542 157.233 122.811C157.666 123.08 158.008 123.449 158.26 123.919C158.512 124.39 158.638 124.909 158.638 125.481C158.64 125.632 158.632 125.784 158.613 125.934ZM154.661 123.875C154.346 124.148 154.143 124.515 154.05 124.977H157.441C157.398 124.566 157.226 124.21 156.924 123.913C156.621 123.615 156.252 123.466 155.815 123.466C155.378 123.466 154.977 123.602 154.661 123.875ZM159.843 128.025C159.419 127.672 159.19 127.198 159.156 126.601H160.316C160.349 126.896 160.473 127.13 160.688 127.307C160.902 127.483 161.16 127.571 161.463 127.571C161.765 127.571 162.013 127.504 162.181 127.37C162.35 127.236 162.433 127.072 162.433 126.879C162.433 126.635 162.333 126.452 162.131 126.331C161.929 126.209 161.614 126.085 161.185 125.959C160.79 125.841 160.465 125.722 160.209 125.6C159.95 125.477 159.726 125.293 159.553 125.065C159.372 124.83 159.282 124.519 159.282 124.133C159.282 123.839 159.362 123.56 159.522 123.296C159.681 123.031 159.915 122.817 160.221 122.653C160.528 122.49 160.896 122.408 161.324 122.408C161.929 122.408 162.425 122.571 162.812 122.899C163.198 123.226 163.421 123.684 163.479 124.272H162.32C162.278 123.995 162.171 123.778 161.999 123.623C161.827 123.468 161.602 123.39 161.324 123.39C161.072 123.39 160.862 123.457 160.694 123.592C160.526 123.726 160.442 123.906 160.442 124.133C160.442 124.36 160.54 124.544 160.738 124.662C160.935 124.78 161.249 124.906 161.677 125.04C162.072 125.149 162.399 125.265 162.66 125.386C162.922 125.509 163.15 125.695 163.322 125.928C163.503 126.167 163.593 126.484 163.593 126.879C163.593 127.198 163.5 127.485 163.316 127.741C163.13 127.998 162.876 128.196 162.553 128.339C162.23 128.482 161.866 128.554 161.463 128.554C160.807 128.554 160.267 128.377 159.843 128.025ZM164.858 128.025C164.434 127.672 164.205 127.198 164.171 126.601H165.331C165.364 126.896 165.488 127.13 165.703 127.307C165.917 127.483 166.176 127.571 166.478 127.571C166.781 127.571 167.028 127.504 167.196 127.37C167.365 127.236 167.448 127.072 167.448 126.879C167.448 126.635 167.347 126.452 167.146 126.331C166.944 126.209 166.629 126.085 166.201 125.959C165.805 125.841 165.48 125.722 165.224 125.6C164.966 125.477 164.741 125.293 164.568 125.065C164.388 124.83 164.297 124.519 164.297 124.133C164.297 123.839 164.377 123.56 164.537 123.296C164.696 123.031 164.929 122.817 165.236 122.653C165.543 122.49 165.911 122.408 166.339 122.408C166.944 122.408 167.44 122.571 167.826 122.899C168.213 123.226 168.436 123.684 168.495 124.272H167.335C167.293 123.995 167.186 123.778 167.014 123.623C166.841 123.468 166.616 123.39 166.339 123.39C166.087 123.39 165.877 123.457 165.709 123.592C165.541 123.726 165.457 123.906 165.457 124.133C165.457 124.36 165.555 124.544 165.753 124.662C165.951 124.78 166.264 124.906 166.692 125.04C167.087 125.149 167.414 125.265 167.675 125.386C167.937 125.509 168.165 125.695 168.337 125.928C168.518 126.167 168.608 126.484 168.608 126.879C168.608 127.198 168.516 127.485 168.331 127.741C168.145 127.998 167.891 128.196 167.568 128.339C167.245 128.482 166.881 128.554 166.478 128.554C165.823 128.554 165.282 128.377 164.858 128.025ZM170.559 128.144C170.101 127.88 169.722 127.497 169.462 127.036C169.198 126.57 169.066 126.052 169.066 125.481C169.066 124.909 169.198 124.391 169.462 123.925C169.722 123.464 170.101 123.082 170.559 122.817C171.025 122.544 171.544 122.408 172.116 122.408C172.687 122.408 173.206 122.544 173.672 122.817C174.131 123.081 174.509 123.464 174.769 123.925C175.034 124.391 175.166 124.909 175.166 125.481C175.166 126.052 175.034 126.57 174.769 127.036C174.509 127.497 174.131 127.88 173.672 128.144C173.206 128.417 172.687 128.554 172.116 128.554C171.544 128.554 171.025 128.417 170.559 128.144ZM173.086 127.238C173.372 127.066 173.597 126.826 173.761 126.519C173.925 126.213 174.006 125.867 174.006 125.481C174.006 125.095 173.925 124.748 173.761 124.442C173.597 124.135 173.372 123.896 173.086 123.724C172.801 123.552 172.477 123.466 172.116 123.466C171.755 123.466 171.431 123.552 171.145 123.724C170.859 123.896 170.635 124.135 170.471 124.442C170.307 124.748 170.225 125.095 170.225 125.481C170.225 125.867 170.307 126.213 170.471 126.519C170.635 126.826 170.86 127.066 171.145 127.238C171.431 127.409 171.755 127.495 172.116 127.495C172.477 127.495 172.801 127.409 173.086 127.238ZM118.422 120.377C118.659 120.377 118.89 120.4 119.116 120.442V114.58H117.729V120.442C117.954 120.4 118.185 120.377 118.422 120.377H118.422ZM116.347 121.009L110.689 115.208L109.531 116.365L115.336 122.018C115.605 121.62 115.948 121.277 116.347 121.009ZM115.324 122.038L107.188 118.487L106.512 120.116L114.777 123.354C114.872 122.884 115.057 122.437 115.323 122.038H115.323H115.324ZM122.035 123.215L125.306 121.788L124.92 120.857L121.598 122.158C121.798 122.486 121.945 122.842 122.035 123.215ZM120.434 120.968L122.253 116.497L121.088 116.015L119.211 120.461C119.653 120.557 120.065 120.73 120.433 120.968H120.434ZM121.452 121.939L124.277 119.043L123.474 118.241L120.576 121.063C120.914 121.305 121.211 121.601 121.452 121.939L121.452 121.939ZM117.681 120.45L115.036 113.949L113.639 114.527L116.37 120.993C116.768 120.729 117.213 120.545 117.681 120.45ZM118.422 127.807C118.185 127.807 117.954 127.784 117.729 127.741V133.618H119.115V127.741C118.891 127.784 118.659 127.807 118.422 127.807H118.422ZM119.211 127.722L121.093 132.179L122.258 131.698L120.434 127.216C120.06 127.457 119.646 127.628 119.211 127.722V127.722ZM120.576 127.119L123.48 129.948L124.282 129.146L121.452 126.244C121.21 126.583 120.914 126.879 120.575 127.12L120.576 127.119ZM114.778 124.83L106.506 128.069L107.182 129.698L115.324 126.145C115.058 125.747 114.873 125.3 114.778 124.83L114.778 124.83L114.778 124.83ZM116.37 127.189L113.633 133.67L115.03 134.248L117.681 127.733C117.213 127.638 116.768 127.453 116.37 127.189ZM115.337 126.165L109.522 131.827L110.68 132.984L116.346 127.174C115.948 126.905 115.605 126.563 115.336 126.165L115.337 126.165ZM125.505 124.535L105.617 125.031L105.618 123.142L125.505 123.653V124.535Z" fill="#1A191C"/>
</g>
<g clip-path="url(#clip3_745_489)">
<path d="M197.116 125.384H202.166V130.526H197.116V125.384Z" fill="#1A191C"/>
<path d="M195.854 117.671L184.492 129.24V130.526H189.541V125.384H197.116V117.671H195.854Z" fill="#1A191C"/>
<path d="M241.755 120.087H239.986V121.806H241.755V120.087Z" fill="#1A191C"/>
<path d="M231.12 121.303H230.924L228.423 123.843V124.297H229.676V128.206C229.676 128.926 229.886 129.508 230.28 129.91C230.676 130.313 231.246 130.526 231.949 130.526C232.45 130.526 232.837 130.435 233.105 130.294L233.148 130.271V128.877L233.019 128.971C232.815 129.12 232.523 129.178 232.247 129.178C231.841 129.178 231.565 129.084 231.388 128.904C231.212 128.724 231.12 128.441 231.12 128.028V124.297H233.148V122.994H231.12V121.303Z" fill="#1A191C"/>
<path d="M225.048 122.831C224.386 122.831 223.733 123.013 223.245 123.387C222.753 123.764 222.432 124.332 222.432 125.092C222.432 125.823 222.732 126.295 223.17 126.612C223.613 126.932 224.161 127.085 224.688 127.202C225.307 127.335 226.235 127.521 226.235 128.31C226.235 129.017 225.504 129.223 224.914 129.223C224.045 129.223 223.228 128.819 222.582 128.235L222.447 128.113V129.744L222.48 129.768C223.197 130.3 224.095 130.526 224.899 130.526C225.635 130.526 226.325 130.333 226.833 129.946C227.343 129.556 227.664 128.972 227.664 128.206C227.664 127.529 227.403 127.053 226.964 126.71C226.531 126.37 225.927 126.163 225.247 126.007C224.705 125.862 223.847 125.643 223.847 124.943C223.847 124.313 224.561 124.119 225.078 124.119C225.828 124.119 226.556 124.478 227.189 124.991L227.321 125.098V123.536L227.286 123.512C226.631 123.073 225.84 122.831 225.048 122.831Z" fill="#1A191C"/>
<path fill-rule="evenodd" clip-rule="evenodd" d="M246.147 122.831C245.066 122.831 244.273 123.211 243.605 123.754L243.575 123.778V125.335L243.711 125.21C244.463 124.521 245.145 124.149 246.117 124.149C246.641 124.149 247.048 124.283 247.324 124.517C247.598 124.75 247.751 125.09 247.751 125.522V125.631L245.686 125.976C244.359 126.196 243.202 126.925 243.202 128.384C243.202 129.619 244.167 130.526 245.475 130.526C246.377 130.526 247.203 130.19 247.795 129.551V130.363H249.165V125.611C249.165 124.755 248.891 124.057 248.37 123.574C247.849 123.091 247.093 122.831 246.147 122.831ZM245.923 127.217L247.765 126.893V127.405C247.765 128.465 246.93 129.238 245.714 129.238C245.161 129.238 244.647 128.901 244.647 128.31C244.647 127.606 245.324 127.329 245.922 127.217L245.923 127.217Z" fill="#1A191C"/>
<path d="M238.33 122.875C237.488 122.875 236.615 123.315 236.189 124.004V122.994H234.774V130.363H236.204V126.856C236.204 126.091 236.402 125.454 236.759 125.01C237.114 124.569 237.631 124.312 238.285 124.312C238.434 124.312 238.724 124.342 238.724 124.342V122.905C238.724 122.905 238.464 122.875 238.33 122.875Z" fill="#1A191C"/>
<path d="M241.593 122.994H240.148V130.363H241.593V122.994Z" fill="#1A191C"/>
<path fill-rule="evenodd" clip-rule="evenodd" d="M216.075 120.082L211.807 130.361H213.355L214.473 127.609H219.003L220.12 130.361H221.698L217.445 120.082H216.075ZM218.46 126.252H215.015L216.731 121.97L218.46 126.252Z" fill="#1A191C"/>
</g>
</g>
<g clip-path="url(#clip4_745_489)">
<rect width="92.3913" height="57.9983" transform="translate(0.307861 155.806)" fill="white"/>
<path d="M39.0876 189.305V180.127H42.1057C43.0173 180.127 43.8098 180.316 44.4833 180.694C45.1567 181.064 45.6782 181.593 46.0477 182.283C46.4173 182.965 46.6021 183.774 46.6021 184.71C46.6021 185.638 46.4173 186.447 46.0477 187.137C45.6782 187.827 45.1567 188.361 44.4833 188.738C43.8098 189.116 43.0173 189.305 42.1057 189.305H39.0876ZM40.0731 188.381H42.1057C42.812 188.381 43.4238 188.233 43.9412 187.938C44.4586 187.634 44.8569 187.207 45.1362 186.656C45.4236 186.106 45.5673 185.457 45.5673 184.71C45.5673 183.963 45.4236 183.318 45.1362 182.776C44.8487 182.226 44.4463 181.803 43.9289 181.507C43.4115 181.203 42.8038 181.051 42.1057 181.051H40.0731V188.381ZM46.909 189.305L50.2597 180.127H51.3191L54.6699 189.305H53.6351L52.8467 187.063H48.7445L47.9438 189.305H46.909ZM49.0648 186.139H52.5018L50.6416 180.867H50.9373L49.0648 186.139Z" fill="#1A191C"/>
<rect width="163.225" height="57.9983" transform="translate(95.7789 155.806)" fill="white"/>
<g clip-path="url(#clip5_745_489)">
<path d="M118.345 174.722V182.142L112.271 184.875L118.345 174.722Z" fill="#1A191C"/>
<path d="M118.345 182.142V188.592L112.271 184.875L118.345 182.142Z" fill="#1A191C"/>
<path d="M118.345 189.914V194.888L112.271 186.299L118.345 189.914Z" fill="#1A191C"/>
<path d="M118.346 174.722V182.142L124.419 184.875L118.346 174.722Z" fill="#1A191C"/>
<path d="M118.346 182.142V188.592L124.419 184.875L118.346 182.142Z" fill="#1A191C"/>
<path d="M118.346 189.914V194.888L124.419 186.299L118.346 189.914Z" fill="#1A191C"/>
</g>
<path d="M169.241 182.81H172.868C173.188 182.81 173.446 182.529 173.407 182.201C173.374 181.926 173.131 181.724 172.854 181.724H168.345C168.046 181.724 167.802 181.969 167.802 182.267V187.695C167.802 187.994 168.046 188.238 168.345 188.238H172.868C173.188 188.238 173.446 187.956 173.407 187.629C173.374 187.354 173.131 187.152 172.854 187.152H169.241C169.046 187.152 168.888 186.994 168.888 186.799V185.877C168.888 185.682 169.046 185.524 169.241 185.524H171.963C172.284 185.524 172.542 185.243 172.502 184.915C172.469 184.64 172.226 184.438 171.949 184.438H169.241C169.046 184.438 168.888 184.28 168.888 184.085V183.163C168.888 182.968 169.046 182.81 169.241 182.81ZM163 182.81C163.606 182.81 164.113 183.027 164.529 183.452C164.629 183.552 164.764 183.606 164.918 183.606C165.217 183.606 165.461 183.362 165.461 183.063C165.461 182.909 165.389 182.765 165.235 182.629C164.592 182.023 163.842 181.724 163 181.724C162.105 181.724 161.336 182.041 160.693 182.683C160.06 183.317 159.744 184.086 159.744 184.981C159.744 185.877 160.06 186.646 160.693 187.288C161.336 187.921 162.105 188.238 163 188.238C163.896 188.238 164.665 187.921 165.298 187.288C165.515 187.071 165.515 186.727 165.298 186.519C165.09 186.302 164.746 186.302 164.529 186.519C164.104 186.944 163.597 187.152 163 187.152C162.403 187.152 161.888 186.944 161.462 186.519C161.037 186.094 160.829 185.578 160.829 184.981C160.829 184.384 161.037 183.877 161.462 183.452C161.888 183.027 162.403 182.81 163 182.81ZM180.688 187.152H177.076C176.88 187.152 176.722 186.994 176.722 186.798V182.281C176.722 182.004 176.52 181.761 176.245 181.728C175.917 181.689 175.636 181.947 175.636 182.267V187.695C175.636 187.994 175.88 188.238 176.179 188.238H180.702C181.023 188.238 181.28 187.956 181.241 187.629C181.208 187.354 180.965 187.152 180.688 187.152ZM203.528 181.724H198.114C197.794 181.724 197.536 182.006 197.575 182.333C197.608 182.608 197.851 182.81 198.128 182.81H199.932C200.127 182.81 200.285 182.968 200.285 183.164V187.695C200.285 188.015 200.566 188.273 200.894 188.234C201.169 188.201 201.371 187.958 201.371 187.681V183.164C201.371 182.968 201.529 182.81 201.724 182.81H203.542C203.862 182.81 204.12 182.529 204.081 182.201C204.048 181.926 203.804 181.724 203.528 181.724ZM206.396 181.724C206.097 181.724 205.853 181.969 205.853 182.267V187.695C205.853 187.994 206.097 188.238 206.396 188.238C206.694 188.238 206.939 187.994 206.939 187.695V182.267C206.939 181.969 206.694 181.724 206.396 181.724ZM195.535 184.918C195.038 184.601 194.368 184.438 193.527 184.438C192.414 184.438 191.853 184.167 191.853 183.624C191.853 183.081 192.414 182.81 193.527 182.81C194.142 182.81 194.73 182.928 195.291 183.154C195.617 183.253 195.843 183.136 195.969 182.819C196.078 182.539 195.933 182.267 195.635 182.132C195.011 181.86 194.314 181.724 193.527 181.724C192.704 181.724 192.043 181.896 191.528 182.231C191.021 182.566 190.768 183.036 190.768 183.624C190.768 184.248 191.021 184.728 191.519 185.044C192.016 185.361 192.686 185.524 193.527 185.524C194.64 185.524 195.201 185.795 195.201 186.338C195.201 186.881 194.64 187.152 193.527 187.152H193.256C192.695 187.152 192.107 187.035 191.501 186.808C191.22 186.709 190.931 186.836 190.813 187.134C190.704 187.415 190.867 187.74 191.148 187.84C191.772 188.102 192.469 188.238 193.256 188.238H193.527C194.35 188.238 195.011 188.066 195.517 187.731C196.033 187.396 196.286 186.926 196.286 186.338C196.286 185.714 196.033 185.234 195.535 184.918ZM184.447 182.81H188.075C188.395 182.81 188.653 182.529 188.614 182.201C188.581 181.926 188.337 181.724 188.06 181.724H183.552C183.253 181.724 183.009 181.969 183.009 182.267V187.695C183.009 187.994 183.253 188.238 183.552 188.238H188.075C188.395 188.238 188.653 187.956 188.614 187.629C188.58 187.354 188.337 187.152 188.06 187.152H184.447C184.252 187.152 184.094 186.994 184.094 186.8V185.877C184.094 185.682 184.252 185.524 184.447 185.524H187.17C187.491 185.524 187.748 185.243 187.709 184.915C187.676 184.64 187.433 184.438 187.156 184.438H184.447C184.252 184.438 184.094 184.28 184.094 184.086V183.163C184.094 182.968 184.252 182.81 184.447 182.81ZM153.825 185.092C153.823 185.157 153.734 185.174 153.708 185.114C153.697 185.088 153.686 185.062 153.675 185.036C153.654 184.989 153.66 184.933 153.691 184.892C153.697 184.883 153.711 184.866 153.726 184.845C153.768 184.79 153.829 184.799 153.829 184.86C153.829 184.94 153.827 185.01 153.825 185.092ZM153.358 183.817C153.286 183.946 153.101 183.952 153.022 183.827C153.009 183.808 152.997 183.789 152.984 183.769C152.696 183.327 152.365 182.893 151.995 182.472C151.904 182.368 151.979 182.206 152.116 182.206H152.12C152.984 182.206 153.437 182.419 153.576 182.68C153.691 182.898 153.656 183.279 153.358 183.817ZM153.165 188.338C153.118 188.456 153.07 188.573 153.019 188.689C153.011 188.705 153.003 188.721 152.995 188.737C152.677 189.349 152.143 189.832 151.429 190.167C151.269 190.243 151.094 190.096 151.142 189.926C151.379 189.078 151.558 188.158 151.674 187.194C151.696 187.014 151.785 186.849 151.922 186.731C152.215 186.477 152.489 186.224 152.741 185.972L152.744 185.969C152.868 185.845 153.079 185.899 153.13 186.066C153.379 186.894 153.393 187.665 153.165 188.338ZM151.225 191.399C151.152 191.477 151.078 191.553 151.003 191.629C150.871 191.76 150.737 191.887 150.599 192.01C150.512 192.087 150.381 191.991 150.43 191.885C150.444 191.855 150.458 191.825 150.472 191.794C150.53 191.667 150.586 191.536 150.64 191.403C150.653 191.371 150.68 191.348 150.713 191.34C150.85 191.305 150.983 191.266 151.113 191.225C151.218 191.191 151.301 191.318 151.225 191.399ZM149.801 190.634C149.513 190.675 149.21 190.702 148.893 190.714C148.12 190.741 147.302 190.674 146.463 190.519C146.36 190.5 146.341 190.362 146.433 190.315C146.617 190.222 146.8 190.128 146.983 190.03C148.268 189.349 149.467 188.605 150.516 187.842C150.595 187.784 150.704 187.852 150.688 187.948C150.542 188.823 150.34 189.646 150.087 190.394C150.044 190.521 149.934 190.614 149.801 190.634ZM149.504 191.799C148.815 193.154 147.966 193.915 147.144 193.899C146.25 193.884 145.359 192.953 144.699 191.346L144.698 191.344C144.656 191.242 144.704 191.125 144.805 191.081C144.812 191.078 144.819 191.075 144.826 191.072C144.87 191.053 144.918 191.05 144.964 191.063C146.198 191.409 147.415 191.59 148.555 191.59C148.679 191.59 148.802 191.588 148.924 191.584C149.066 191.579 149.207 191.57 149.345 191.56C149.473 191.549 149.562 191.685 149.504 191.799ZM145.424 194.376C145.015 194.428 144.599 194.455 144.179 194.455C142.303 194.455 140.509 193.924 138.969 192.932C138.863 192.864 138.908 192.699 139.034 192.693C139.06 192.692 139.085 192.691 139.106 192.689C139.497 192.664 139.927 192.607 140.392 192.517C141.381 192.327 142.481 192 143.632 191.561C143.735 191.521 143.851 191.573 143.893 191.675C143.893 191.675 143.893 191.676 143.893 191.677C144.34 192.763 144.889 193.584 145.505 194.106C145.607 194.193 145.557 194.359 145.424 194.376ZM139.844 187.614C140.694 186.922 141.69 186.231 142.783 185.577C142.807 186.975 142.96 188.317 143.231 189.529C142.826 189.356 142.422 189.166 142.021 188.958C141.245 188.554 140.515 188.103 139.844 187.614ZM137.199 191.36C136.996 190.977 137.258 190.091 138.59 188.743L138.591 188.742C138.73 188.602 138.717 188.371 138.561 188.249C138.508 188.207 138.455 188.165 138.402 188.122C138.27 188.015 138.078 188.025 137.957 188.146C137.931 188.172 137.911 188.192 137.906 188.198C137.24 188.881 136.774 189.514 136.513 190.083C136.439 190.244 136.215 190.262 136.117 190.114C135.084 188.551 134.529 186.721 134.529 184.805C134.529 184.12 134.6 183.446 134.739 182.791C134.759 182.692 134.899 182.686 134.929 182.783C135.129 183.444 135.455 184.128 135.905 184.819C136.511 185.75 137.31 186.645 138.258 187.465C138.581 187.746 138.922 188.017 139.279 188.278C140.001 188.808 140.785 189.297 141.62 189.73C141.99 189.923 142.35 190.106 142.719 190.272C142.924 190.365 143.158 190.372 143.368 190.29C143.542 190.221 143.717 190.151 143.893 190.077C144.085 189.997 144.189 189.788 144.138 189.586C144.132 189.561 144.127 189.541 144.124 189.529C143.833 188.306 143.672 186.93 143.653 185.488L143.652 185.488C143.652 185.471 143.652 185.453 143.652 185.436C143.651 185.357 143.652 185.278 143.65 185.199C143.65 185.174 143.651 185.132 143.651 185.107C143.651 185.097 143.651 185.087 143.651 185.077C143.651 185.077 143.651 185.077 143.651 185.077C143.652 184.986 143.652 184.896 143.654 184.806C143.658 184.558 143.667 184.313 143.68 184.069C143.68 184.069 143.68 184.069 143.68 184.069C143.769 182.329 144.064 180.695 144.534 179.319C144.577 179.192 144.509 179.054 144.382 179.01C144.258 178.968 144.134 178.928 144.01 178.889C143.885 178.849 143.751 178.917 143.709 179.041C143.2 180.535 142.886 182.307 142.802 184.182C142.792 184.42 142.662 184.636 142.458 184.758C141.347 185.416 140.327 186.113 139.446 186.817C139.262 186.963 139 186.958 138.823 186.804C137.94 186.038 137.196 185.207 136.635 184.344C135.53 182.648 135.268 181.051 135.896 179.847C135.898 179.844 135.899 179.841 135.901 179.839C135.981 179.706 136.064 179.575 136.151 179.446C136.872 178.491 138.215 177.937 139.996 177.875C140.109 177.871 140.222 177.869 140.337 177.869C141.429 177.869 142.601 178.049 143.794 178.393L143.794 178.393C143.82 178.4 143.846 178.408 143.872 178.416C143.892 178.422 143.913 178.427 143.933 178.433C143.933 178.433 143.933 178.433 143.933 178.433C144.208 178.516 144.485 178.607 144.761 178.706C144.761 178.707 144.761 178.706 144.761 178.706C144.768 178.709 144.774 178.711 144.781 178.713C144.853 178.739 144.925 178.766 144.997 178.793C145.019 178.802 145.042 178.81 145.064 178.819C145.086 178.827 145.108 178.835 145.129 178.844L145.129 178.844C145.711 179.07 146.293 179.332 146.868 179.63C147.98 180.208 148.998 180.885 149.884 181.628C148.193 182.016 146.228 182.763 144.252 183.77C144.161 183.817 144.101 183.908 144.095 184.01C144.088 184.133 144.079 184.379 144.073 184.575C144.069 184.698 144.199 184.779 144.308 184.722L144.309 184.721C146.265 183.694 148.217 182.926 149.894 182.521C150.207 182.445 150.41 182.144 150.366 181.824C150.335 181.601 150.3 181.382 150.262 181.166C150.214 180.895 150.065 180.653 149.846 180.486C149.061 179.888 148.196 179.339 147.269 178.858C146.645 178.533 146.012 178.249 145.377 178.007C145.241 177.955 145.183 177.794 145.254 177.667C145.908 176.497 146.685 175.842 147.443 175.842C147.451 175.842 147.459 175.842 147.467 175.842C148.361 175.858 149.252 176.789 149.912 178.396C150.246 179.209 150.505 180.148 150.682 181.167C150.681 181.166 150.68 181.165 150.679 181.165C150.755 181.6 150.816 182.049 150.861 182.51C150.857 182.513 150.853 182.515 150.849 182.518C150.854 182.523 150.86 182.528 150.865 182.534C150.94 183.308 150.972 184.114 150.957 184.936C150.948 185.456 150.92 185.969 150.875 186.471C149.679 187.438 148.2 188.4 146.575 189.261C146.041 189.544 145.507 189.808 144.978 190.05C144.97 190.054 144.962 190.058 144.954 190.062C144.913 190.08 144.873 190.099 144.832 190.117C144.832 190.117 144.832 190.117 144.831 190.117C144.393 190.315 143.959 190.498 143.532 190.666C143.532 190.666 143.532 190.666 143.532 190.666C143.508 190.676 143.484 190.685 143.46 190.694C143.43 190.706 143.4 190.717 143.371 190.729C143.299 190.756 143.228 190.783 143.156 190.81C143.137 190.817 143.117 190.825 143.098 190.832C143.011 190.864 142.925 190.895 142.84 190.926C142.829 190.93 142.818 190.934 142.808 190.938C142.807 190.937 142.807 190.937 142.807 190.937C141.893 191.263 141.021 191.509 140.227 191.662C138.308 192.031 137.405 191.748 137.199 191.36ZM138.577 176.945C140.201 175.782 142.142 175.155 144.179 175.155C144.717 175.155 145.248 175.199 145.768 175.285C145.907 175.308 145.954 175.486 145.843 175.573C145.339 175.968 144.87 176.552 144.456 177.311C144.355 177.496 144.14 177.586 143.937 177.529C142.564 177.142 141.214 176.961 139.965 177.004C139.505 177.021 139.069 177.067 138.659 177.143C138.544 177.164 138.482 177.013 138.577 176.945ZM151.824 183.978C151.821 183.868 151.963 183.821 152.027 183.911C152.106 184.021 152.182 184.133 152.255 184.244C152.351 184.393 152.441 184.541 152.525 184.687C152.577 184.779 152.565 184.894 152.494 184.971C152.381 185.095 152.259 185.223 152.126 185.356C152.077 185.404 152.028 185.452 151.978 185.501C151.915 185.561 151.81 185.515 151.814 185.429C151.82 185.27 151.825 185.111 151.827 184.952C151.833 184.625 151.832 184.3 151.824 183.978ZM150.823 177.806C150.884 177.864 150.944 177.922 151.003 177.981C151.933 178.911 152.649 179.998 153.128 181.181C153.176 181.301 153.075 181.426 152.948 181.403C152.671 181.353 152.359 181.331 152.014 181.337C151.775 181.341 151.567 181.173 151.525 180.937C151.337 179.885 151.066 178.913 150.718 178.065C150.698 178.017 150.678 177.969 150.657 177.922C150.613 177.818 150.741 177.729 150.823 177.806ZM154.473 182.617C154.057 180.642 153.079 178.827 151.618 177.366C149.631 175.379 146.989 174.284 144.179 174.284C141.369 174.284 138.727 175.379 136.74 177.366C136.256 177.849 135.827 178.371 135.452 178.925C135.34 179.073 135.24 179.23 135.152 179.394C134.178 181.012 133.658 182.868 133.658 184.805C133.658 187.615 134.753 190.257 136.74 192.244C138.727 194.232 141.369 195.326 144.179 195.326C146.989 195.326 149.631 194.232 151.618 192.244C152.556 191.307 153.295 190.223 153.814 189.045C153.877 188.914 153.933 188.78 153.98 188.644C154.453 187.437 154.7 186.14 154.7 184.805C154.7 184.07 154.625 183.347 154.479 182.644C154.477 182.635 154.475 182.626 154.473 182.617ZM213.405 185.795H211.415C211.228 185.795 211.111 185.593 211.205 185.431L212.203 183.708C212.297 183.546 212.531 183.546 212.624 183.708L213.616 185.431C213.709 185.593 213.592 185.795 213.405 185.795ZM216.024 187.433L212.884 181.987C212.658 181.634 212.17 181.634 211.944 181.987L208.805 187.433C208.767 187.501 208.748 187.569 208.743 187.648C208.723 187.956 208.962 188.231 209.27 188.238C209.485 188.243 209.652 188.134 209.782 187.903L210.267 187.059C210.33 186.949 210.448 186.881 210.576 186.881H214.244C214.371 186.881 214.489 186.949 214.552 187.059L215.038 187.903C215.16 188.122 215.325 188.231 215.525 188.237C215.829 188.248 216.087 188 216.087 187.695C216.087 187.614 216.069 187.532 216.024 187.433Z" fill="#1A191C"/>
<g clip-path="url(#clip6_745_489)">
<path fill-rule="evenodd" clip-rule="evenodd" d="M230.235 184.805V194.623H225.326V184.805V174.987H240.053V179.896H235.144V184.805H240.053V189.714H237.594V194.623H232.779V192.164H235.135V184.805H232.677V179.896H230.235V184.805ZM240.053 189.714H242.511V194.623H240.053V189.714Z" fill="#1A191C"/>
</g>
</g>
<g opacity="0.5">
<g filter="url(#filter0_f_745_489)">
<path d="M132.5 403.632C108.605 322.047 97.0427 232.441 98.767 142.206C100.491 51.9707 115.452 -36.3086 142.416 -115.351C169.38 -194.393 207.575 -261.932 253.849 -312.399C300.123 -362.866 353.151 -394.813 408.559 -405.607L-226.371 530.306L132.5 403.632Z" fill="#00F5FF"/>
</g>
</g>
</g>
<defs>
<filter id="filter0_f_745_489" x="-534.342" y="-713.578" width="1250.87" height="1551.85" filterUnits="userSpaceOnUse" color-interpolation-filters="sRGB">
<feFlood flood-opacity="0" result="BackgroundImageFix"/>
<feBlend mode="normal" in="SourceGraphic" in2="BackgroundImageFix" result="shape"/>
<feGaussianBlur stdDeviation="153.986" result="effect1_foregroundBlur_745_489"/>
</filter>
<clipPath id="clip0_745_489">
<rect x="0.307861" width="258.696" height="258.696" rx="49.2754" fill="white"/>
</clipPath>
<clipPath id="clip1_745_489">
<rect width="258.696" height="57.2551" fill="white" transform="translate(0.307861 95.471)"/>
</clipPath>
<clipPath id="clip2_745_489">
<rect width="69.6354" height="20.2986" fill="white" transform="translate(105.617 113.949)"/>
</clipPath>
<clipPath id="clip3_745_489">
<rect width="64.6739" height="12.8544" fill="white" transform="translate(184.492 117.671)"/>
</clipPath>
<clipPath id="clip4_745_489">
<rect width="258.696" height="57.9983" fill="white" transform="translate(0.307861 155.806)"/>
</clipPath>
<clipPath id="clip5_745_489">
<rect width="12.1479" height="20.1655" fill="white" transform="translate(112.271 174.722)"/>
</clipPath>
<clipPath id="clip6_745_489">
<rect width="17.1853" height="19.7376" fill="white" transform="matrix(1 0 0 -1 225.326 194.674)"/>
</clipPath>
</defs>
</svg>
