<svg width="43" height="43" viewBox="0 0 43 43" fill="none" xmlns="http://www.w3.org/2000/svg">
<g clip-path="url(#clip0_752_1020)">
<path d="M38.3984 0.608887H4.60156C2.33633 0.608887 0.5 2.44522 0.5 4.71045V38.5073C0.5 40.7726 2.33633 42.6089 4.60156 42.6089H38.3984C40.6637 42.6089 42.5 40.7726 42.5 38.5073V4.71045C42.5 2.44522 40.6637 0.608887 38.3984 0.608887Z" fill="#737277"/>
<path d="M38.3984 0.608887H4.60156C2.33633 0.608887 0.5 2.44522 0.5 4.71045V38.5073C0.5 40.7726 2.33633 42.6089 4.60156 42.6089H38.3984C40.6637 42.6089 42.5 40.7726 42.5 38.5073V4.71045C42.5 2.44522 40.6637 0.608887 38.3984 0.608887Z" fill="#737277"/>
<path fill-rule="evenodd" clip-rule="evenodd" d="M26.4989 34.0304V38.137C27.1665 38.4792 27.956 38.7358 28.8676 38.9069C29.7791 39.078 30.7398 39.1636 31.7497 39.1636C32.734 39.1636 33.669 39.0695 34.5549 38.8812C35.4407 38.693 36.2175 38.3829 36.885 37.9508C37.5526 37.5188 38.0811 36.9541 38.4705 36.2569C38.8599 35.5596 39.0547 34.6977 39.0547 33.6711C39.0547 32.9267 38.9435 32.2744 38.7209 31.7141C38.4984 31.1537 38.1774 30.6554 37.758 30.2191C37.3387 29.7827 36.8358 29.3913 36.2495 29.0448C35.6633 28.6983 35.0021 28.3711 34.266 28.0631C33.7268 27.8406 33.2433 27.6246 32.8153 27.4151C32.3874 27.2054 32.0236 26.9915 31.724 26.7734C31.4245 26.5552 31.1934 26.3242 31.0308 26.0804C30.8682 25.8365 30.7868 25.5607 30.7868 25.2526C30.7868 24.9704 30.8596 24.7158 31.0051 24.4891C31.1506 24.2624 31.3561 24.0678 31.6213 23.9052C31.8867 23.7427 32.2119 23.6164 32.597 23.5266C32.9822 23.4368 33.4101 23.3919 33.8809 23.3919C34.2232 23.3919 34.5848 23.4176 34.9657 23.4689C35.3465 23.5202 35.7296 23.5994 36.1148 23.7063C36.4999 23.8132 36.8743 23.948 37.2381 24.1105C37.6018 24.2731 37.9378 24.4613 38.2459 24.6752V20.8381C37.6211 20.5986 36.9385 20.4211 36.1982 20.3056C35.4579 20.1901 34.6083 20.1323 33.6498 20.1323C32.6741 20.1323 31.7497 20.2372 30.8767 20.4467C30.0038 20.6563 29.2356 20.9836 28.5722 21.4284C27.9089 21.8734 27.3848 22.4401 26.9996 23.1288C26.6145 23.8175 26.4219 24.6409 26.4219 25.5991C26.4219 26.8225 26.7749 27.8663 27.4811 28.7304C28.1871 29.5945 29.2591 30.3259 30.697 30.9248C31.2619 31.1558 31.7883 31.3825 32.2761 31.605C32.764 31.8274 33.1855 32.0584 33.5406 32.298C33.8958 32.5375 34.1761 32.7984 34.3816 33.0808C34.587 33.3631 34.6897 33.6839 34.6897 34.0433C34.6897 34.3085 34.6255 34.5544 34.4971 34.7811C34.3687 35.0079 34.174 35.2046 33.913 35.3714C33.6519 35.5383 33.3267 35.6687 32.9373 35.7628C32.5478 35.857 32.0921 35.904 31.57 35.904C30.6799 35.904 29.7984 35.7479 28.9253 35.4356C28.0523 35.1234 27.2435 34.655 26.4989 34.0304ZM19.5952 23.9125H24.8633V20.5425H10.1797V23.9125H15.422V38.9175H19.5952V23.9125Z" fill="white"/>
</g>
<defs>
<clipPath id="clip0_752_1020">
<rect width="42" height="42" fill="white" transform="translate(0.5 0.608887)"/>
</clipPath>
</defs>
</svg>
