<svg width="31" height="32" viewBox="0 0 31 32" fill="none" xmlns="http://www.w3.org/2000/svg">
<path d="M11.39 20.95L7.73 18.84L0.33 14.54L0.01 14.22L0 13.87V9.17001L4.08 6.81001L15.46 0.200012L30.93 9.17001V15.31L26.03 12.48L15.46 6.36001L6.14 11.77L8.56 13.16L20.77 20.25L15.46 23.31L11.39 20.95Z" fill="#1A191C"/>
<path d="M4.07 25.19L0 22.84V16.69L8.56 21.64L15.46 25.64L24.8 20.24L10.16 11.75L15.46 8.69L23.2 13.17L26.85 15.28L30.6 17.46L30.92 17.78L30.93 18.13V22.84L26.86 25.2L15.46 31.8L4.07 25.19Z" fill="#1A191C"/>
</svg>
