<svg width="155" height="34" viewBox="0 0 155 34" fill="none" xmlns="http://www.w3.org/2000/svg">
<g clip-path="url(#clip0_711_586)">
<path d="M53.1809 28.5342C51.8335 28.5441 50.4983 28.2768 49.2566 27.7488C48.0854 27.2566 47.0286 26.5237 46.1535 25.5969C45.2882 24.6786 44.6394 23.5753 44.2552 22.369L47.6251 20.895C48.1032 22.1061 48.9132 23.1548 49.9604 23.9184C50.9615 24.6383 52.165 25.0154 53.3942 24.9943C54.0333 25.0118 54.6689 24.8945 55.2604 24.65C55.7434 24.4518 56.1637 24.1244 56.4761 23.7032C56.7723 23.2828 56.9257 22.777 56.9133 22.2614C56.9378 21.6565 56.7273 21.0659 56.3268 20.6152C55.8453 20.1302 55.2458 19.7814 54.5886 19.6038L50.323 18.2158C48.8095 17.812 47.448 16.9661 46.4094 15.7842C45.5374 14.7039 45.0726 13.3469 45.0977 11.9538C45.0716 10.752 45.3981 9.56909 46.0361 8.5538C46.6845 7.55121 47.5965 6.75025 48.6701 6.24049C49.8775 5.67112 51.1979 5.38778 52.5305 5.41205C53.7915 5.39807 55.0426 5.63952 56.2095 6.12215C57.288 6.57668 58.2666 7.24224 59.0888 8.08038C59.891 8.91801 60.5056 9.91969 60.8909 11.0177L57.5532 12.5241C57.1697 11.4759 56.4822 10.5686 55.5803 9.92028C54.6836 9.30099 53.6169 8.98108 52.5305 9.00569C51.9158 8.99081 51.3051 9.10819 50.7389 9.35C50.2577 9.55148 49.8408 9.88281 49.5339 10.3076C49.2233 10.7735 49.071 11.3286 49.0998 11.8893C49.1287 12.45 49.3371 12.9862 49.6938 13.4171C50.1917 13.9385 50.8228 14.3109 51.5174 14.4931L55.6123 15.7842C57.1275 16.2155 58.5007 17.0476 59.59 18.1943C60.4909 19.2467 60.9667 20.6025 60.923 21.9924C60.9436 23.203 60.6017 24.3918 59.9419 25.4032C59.2563 26.4054 58.3174 27.2041 57.2226 27.7165C55.9541 28.2942 54.5721 28.5738 53.1809 28.5342Z" fill="#1A191C"/>
<path d="M70.0193 28.5341C68.8715 28.5591 67.7389 28.2651 66.7455 27.6842C65.8205 27.1321 65.0783 26.3158 64.6127 25.3385C64.1021 24.2348 63.8503 23.0272 63.8769 21.8094V11.7816H67.7906V21.4651C67.7729 22.089 67.9123 22.7072 68.1958 23.262C68.4586 23.7693 68.8625 24.1882 69.3581 24.467C69.8817 24.7645 70.4742 24.9167 71.0751 24.9082C71.6694 24.9187 72.2554 24.7662 72.7706 24.467C73.265 24.1784 73.671 23.7577 73.9437 23.2512C74.2331 22.6713 74.376 22.0281 74.3595 21.379V11.7708H78.2732V28.1576H74.5621V24.9297L74.8927 25.5107C74.5529 26.4616 73.8922 27.2615 73.0265 27.7702C72.107 28.2843 71.0705 28.5476 70.0193 28.5341Z" fill="#1A191C"/>
<path d="M81.9308 28.1683V11.7816H85.6099V15.0095L85.3113 14.4392C85.6554 13.4963 86.3156 12.7046 87.1775 12.2013C88.0984 11.67 89.1455 11.4021 90.2061 11.4265C91.3221 11.4023 92.425 11.6731 93.4052 12.212C94.3013 12.7144 95.0401 13.4598 95.538 14.3639C96.0721 15.3529 96.3405 16.4657 96.3165 17.5918V28.1361H92.4028V18.5278C92.4193 17.8787 92.2764 17.2356 91.9869 16.6557C91.7219 16.1507 91.3232 15.7298 90.8352 15.4399C90.3121 15.1507 89.7254 14.9992 89.129 14.9992C88.5326 14.9992 87.9458 15.1507 87.4227 15.4399C86.9262 15.7258 86.5196 16.1472 86.2497 16.6557C85.9602 17.2356 85.8173 17.8787 85.8338 18.5278V28.1361L81.9308 28.1683Z" fill="#1A191C"/>
<path d="M107.578 28.5341C106.062 28.5644 104.566 28.1934 103.237 27.4582C101.923 26.7253 100.831 25.6449 100.08 24.333C99.3283 23.0212 98.9452 21.5276 98.9718 20.0126C98.9495 18.4999 99.3345 17.0094 100.086 15.7001C100.837 14.3908 101.926 13.3117 103.237 12.5778C104.568 11.8432 106.061 11.4582 107.578 11.4582C109.094 11.4582 110.587 11.8432 111.918 12.5778C113.191 13.2983 114.256 14.3401 115.01 15.6012C115.769 16.9436 116.167 18.4621 116.167 20.0072C116.167 21.5524 115.769 23.0708 115.01 24.4132C114.238 25.7072 113.141 26.7731 111.831 27.504C110.52 28.2349 109.042 28.605 107.546 28.5771L107.578 28.5341ZM107.578 24.919C108.393 24.935 109.196 24.7146 109.892 24.2841C110.57 23.8517 111.119 23.2419 111.481 22.5195C111.873 21.7287 112.071 20.8539 112.056 19.9696C112.074 19.0883 111.876 18.2164 111.481 17.4303C111.106 16.7195 110.56 16.1161 109.892 15.6765C109.2 15.2371 108.395 15.0126 107.578 15.031C106.747 15.0142 105.929 15.2382 105.221 15.6765C104.549 16.1154 103.999 16.7188 103.621 17.4303C103.226 18.2164 103.028 19.0883 103.045 19.9696C103.031 20.8539 103.229 21.7287 103.621 22.5195C103.983 23.2603 104.548 23.8804 105.25 24.3059C105.951 24.7313 106.759 24.9441 107.578 24.919Z" fill="#1A191C"/>
<path d="M126.666 28.5342C125.185 28.5595 123.727 28.1683 122.454 27.4045C121.224 26.6534 120.212 25.5882 119.521 24.3165C118.809 22.9964 118.443 21.5154 118.455 20.0127C118.437 18.5094 118.804 17.0269 119.521 15.7089C120.226 14.4496 121.24 13.3938 122.464 12.6424C123.721 11.874 125.165 11.4752 126.634 11.4911C127.775 11.4703 128.905 11.7248 129.929 12.2335C130.866 12.694 131.656 13.4096 132.211 14.2994L131.614 15.1064V5.42283H135.57V28.2329H131.87V25.0696L132.286 25.8551C131.696 26.7151 130.874 27.3871 129.918 27.7918C128.903 28.2808 127.791 28.5344 126.666 28.5342ZM127.082 24.919C127.911 24.9343 128.727 24.7144 129.439 24.2842C130.117 23.8537 130.669 23.2483 131.038 22.5304C131.417 21.7347 131.614 20.8632 131.614 19.9804C131.614 19.0976 131.417 18.2261 131.038 17.4304C130.657 16.7004 130.086 16.0893 129.386 15.663C128.686 15.2367 127.884 15.0114 127.066 15.0114C126.248 15.0114 125.446 15.2367 124.746 15.663C124.046 16.0893 123.475 16.7004 123.094 17.4304C122.695 18.2155 122.493 19.0875 122.507 19.9696C122.492 20.8587 122.694 21.7379 123.094 22.5304C123.461 23.2596 124.027 23.8679 124.725 24.2842C125.425 24.7031 126.225 24.9225 127.039 24.919H127.082Z" fill="#1A191C"/>
<path d="M146.426 28.5341C144.911 28.5643 143.415 28.1934 142.086 27.4582C140.796 26.7008 139.725 25.6151 138.981 24.3095C138.236 23.0039 137.845 21.5242 137.845 20.018C137.845 18.5119 138.236 17.032 138.981 15.7264C139.725 14.4208 140.796 13.3351 142.086 12.5778C143.421 11.8403 144.925 11.4693 146.448 11.5018C147.942 11.4717 149.419 11.8386 150.729 12.5656C152.039 13.2927 153.137 14.3543 153.912 15.6443C154.671 16.9867 155.069 18.5051 155.069 20.0503C155.069 21.5954 154.671 23.1139 153.912 24.4563C153.14 25.7502 152.043 26.8162 150.733 27.5471C149.422 28.278 147.944 28.6481 146.448 28.6202L146.426 28.5341ZM146.426 24.9189C147.242 24.935 148.045 24.7146 148.74 24.2841C149.418 23.8517 149.967 23.2418 150.329 22.5195C150.722 21.7286 150.919 20.8539 150.905 19.9695C150.922 19.0883 150.724 18.2164 150.329 17.4303C149.955 16.7195 149.408 16.116 148.74 15.6765C148.048 15.2382 147.243 15.0139 146.426 15.031C145.595 15.0098 144.776 15.2342 144.069 15.6765C143.398 16.1154 142.848 16.7188 142.47 17.4303C142.075 18.2164 141.877 19.0883 141.894 19.9695C141.88 20.8539 142.077 21.7286 142.47 22.5195C142.835 23.2426 143.388 23.8523 144.069 24.2841C144.78 24.7159 145.597 24.936 146.426 24.9189Z" fill="#1A191C"/>
<path d="M12.1462 22.3259L8.24321 20.0557L0.351909 15.4291L0.0106639 15.0848L0 14.7082V9.65127L4.35088 7.11203L16.4864 0L32.9835 9.65127V16.2576L27.7582 13.2127L16.4864 6.62785L6.54764 12.4487L9.12831 13.9443L22.1489 21.5728L16.4864 24.8652L12.1462 22.3259Z" fill="#1A191C"/>
<path d="M4.34021 26.888L0 24.3595V17.7424L9.12831 23.0683L16.4864 27.3721L26.4465 21.562L10.8345 12.4272L16.4864 9.1348L24.7403 13.955L28.6326 16.2253L32.6316 18.5709L32.9728 18.9152L32.9835 19.2918V24.3595L28.6433 26.8987L16.4864 34L4.34021 26.888Z" fill="#1A191C"/>
</g>
<defs>
<clipPath id="clip0_711_586">
<rect width="155" height="34" fill="white"/>
</clipPath>
</defs>
</svg>
