<svg aria-roledescription="er" viewBox="0 0 1605.8671875 642" style="max-width: 1605.87px; background-color: white;" xmlns:xlink="http://www.w3.org/1999/xlink" xmlns="http://www.w3.org/2000/svg" width="100%" id="mermaid-0"><style>#mermaid-0{font-family:"trebuchet ms",verdana,arial,sans-serif;font-size:16px;fill:#000000;}#mermaid-0 .error-icon{fill:#552222;}#mermaid-0 .error-text{fill:#552222;stroke:#552222;}#mermaid-0 .edge-thickness-normal{stroke-width:2px;}#mermaid-0 .edge-thickness-thick{stroke-width:3.5px;}#mermaid-0 .edge-pattern-solid{stroke-dasharray:0;}#mermaid-0 .edge-pattern-dashed{stroke-dasharray:3;}#mermaid-0 .edge-pattern-dotted{stroke-dasharray:2;}#mermaid-0 .marker{fill:#000000;stroke:#000000;}#mermaid-0 .marker.cross{stroke:#000000;}#mermaid-0 svg{font-family:"trebuchet ms",verdana,arial,sans-serif;font-size:16px;}#mermaid-0 .entityBox{fill:#cde498;stroke:#13540c;}#mermaid-0 .attributeBoxOdd{fill:#ffffff;stroke:#13540c;}#mermaid-0 .attributeBoxEven{fill:#f2f2f2;stroke:#13540c;}#mermaid-0 .relationshipLabelBox{fill:hsl(78.1578947368, 58.4615384615%, 84.5098039216%);opacity:0.7;background-color:hsl(78.1578947368, 58.4615384615%, 84.5098039216%);}#mermaid-0 .relationshipLabelBox rect{opacity:0.5;}#mermaid-0 .relationshipLine{stroke:#000000;}#mermaid-0 .entityTitleText{text-anchor:middle;font-size:18px;fill:#000000;}#mermaid-0 :root{--mermaid-font-family:"trebuchet ms",verdana,arial,sans-serif;}</style><g/><defs><marker orient="auto" markerHeight="18" markerWidth="18" refY="9" refX="0" id="ONLY_ONE_START"><path d="M9,0 L9,18 M15,0 L15,18" fill="none" stroke="gray"/></marker></defs><defs><marker orient="auto" markerHeight="18" markerWidth="18" refY="9" refX="18" id="ONLY_ONE_END"><path d="M3,0 L3,18 M9,0 L9,18" fill="none" stroke="gray"/></marker></defs><defs><marker orient="auto" markerHeight="18" markerWidth="30" refY="9" refX="0" id="ZERO_OR_ONE_START"><circle r="6" cy="9" cx="21" fill="white" stroke="gray"/><path d="M9,0 L9,18" fill="none" stroke="gray"/></marker></defs><defs><marker orient="auto" markerHeight="18" markerWidth="30" refY="9" refX="30" id="ZERO_OR_ONE_END"><circle r="6" cy="9" cx="9" fill="white" stroke="gray"/><path d="M21,0 L21,18" fill="none" stroke="gray"/></marker></defs><defs><marker orient="auto" markerHeight="36" markerWidth="45" refY="18" refX="18" id="ONE_OR_MORE_START"><path d="M0,18 Q 18,0 36,18 Q 18,36 0,18 M42,9 L42,27" fill="none" stroke="gray"/></marker></defs><defs><marker orient="auto" markerHeight="36" markerWidth="45" refY="18" refX="27" id="ONE_OR_MORE_END"><path d="M3,9 L3,27 M9,18 Q27,0 45,18 Q27,36 9,18" fill="none" stroke="gray"/></marker></defs><defs><marker orient="auto" markerHeight="36" markerWidth="57" refY="18" refX="18" id="ZERO_OR_MORE_START"><circle r="6" cy="18" cx="48" fill="white" stroke="gray"/><path d="M0,18 Q18,0 36,18 Q18,36 0,18" fill="none" stroke="gray"/></marker></defs><defs><marker orient="auto" markerHeight="36" markerWidth="57" refY="18" refX="39" id="ZERO_OR_MORE_END"><circle r="6" cy="18" cx="9" fill="white" stroke="gray"/><path d="M21,18 Q39,0 57,18 Q39,36 21,18" fill="none" stroke="gray"/></marker></defs><path style="stroke: gray; fill: none;" marker-start="url(#ZERO_OR_ONE_START)" marker-end="url(#ONLY_ONE_END)" d="M272.0800280448718,355L253.44299212072653,368.8333333333333C234.8059561965812,382.6666666666667,197.53188434829062,410.3333333333333,178.8948484241453,438C160.2578125,465.6666666666667,160.2578125,493.3333333333333,160.2578125,507.1666666666667L160.2578125,521" class="er relationshipLine"/><path style="stroke: gray; fill: none;" marker-start="url(#ZERO_OR_MORE_START)" marker-end="url(#ONLY_ONE_END)" d="M388.4609375,343.65478825162234L437.4449869791667,359.3789902096853C486.4290364583333,375.1031921677482,584.3971354166666,406.55159608387413,643.6659738915598,432.4424647086037C702.934812366453,458.3333333333333,723.5043903579059,478.6666666666667,733.7891793536324,488.8333333333333L744.073968349359,499" class="er relationshipLine"/><path style="stroke: gray; fill: none;" marker-start="url(#ZERO_OR_MORE_START)" marker-end="url(#ONLY_ONE_END)" d="M317.88671875,355L317.88671875,368.8333333333333C317.88671875,382.6666666666667,317.88671875,410.3333333333333,325.55259526353274,432.5C333.21847177706553,454.6666666666667,348.550224804131,471.3333333333333,356.2161013176638,479.6666666666667L363.8819778311966,488" class="er relationshipLine"/><path style="stroke: gray; fill: none;" marker-start="url(#ZERO_OR_MORE_START)" marker-end="url(#ONLY_ONE_END)" d="M811.01171875,366L811.01171875,378C811.01171875,390,811.01171875,414,810.1178246305199,436.1666666666667C809.2239305110398,458.3333333333333,807.4361422720798,478.6666666666667,806.5422481525997,488.8333333333333L805.6483540331196,499" class="er relationshipLine"/><path style="stroke: gray; fill: none;" marker-start="url(#ZERO_OR_MORE_START)" marker-end="url(#ONLY_ONE_END)" d="M553.71875,366L553.71875,378C553.71875,390,553.71875,414,543.2278645833334,435.57413162705666C532.7369791666666,457.1482632541133,511.7552083333333,476.2965265082267,501.2643229166667,485.87065813528335L490.7734375,495.44478976234006" class="er relationshipLine"/><path style="stroke: gray; fill: none;" marker-start="url(#ZERO_OR_MORE_START)" marker-end="url(#ZERO_OR_ONE_END)" d="M618.9765625,342.36947751648137L667.6490885416666,358.3078979304011C716.3216145833334,374.24631834432085,813.6666666666666,406.12315917216046,852.7558398993946,432.2282462527469C891.8450131321225,458.3333333333333,872.6783075142451,478.6666666666667,863.0949547053063,488.8333333333333L853.5116018963676,499" class="er relationshipLine"/><path style="stroke: gray; fill: none;" marker-start="url(#ZERO_OR_MORE_START)" marker-end="url(#ONLY_ONE_END)" d="M958.40234375,110.50847287676727L890.955078125,126.09039406397272C823.5078125,141.67231525117816,688.61328125,172.8361576255891,621.166015625,200.41807881279456C553.71875,228,553.71875,252,553.71875,264L553.71875,276" class="er relationshipLine"/><path style="stroke: gray; fill: none;" marker-start="url(#ZERO_OR_ONE_START)" marker-end="url(#ONLY_ONE_END)" d="M958.40234375,99.19213152789168L812.611328125,116.66010960657638C666.8203125,134.1280876852611,375.23828125,169.06404384263055,229.447265625,198.53202192131528C83.65625,228,83.65625,252,83.65625,264L83.65625,276" class="er relationshipLine"/><path style="stroke: gray; fill: none;" marker-start="url(#ZERO_OR_MORE_START)" marker-end="url(#ONLY_ONE_END)" d="M1060.16015625,154L1060.16015625,162.33333333333334C1060.16015625,170.66666666666666,1060.16015625,187.33333333333334,1060.16015625,204C1060.16015625,220.66666666666666,1060.16015625,237.33333333333334,1060.16015625,245.66666666666666L1060.16015625,254" class="er relationshipLine"/><path style="stroke: gray; fill: none;" marker-start="url(#ZERO_OR_MORE_START)" marker-end="url(#ONLY_ONE_END)" d="M1161.91796875,137.4452241844453L1184.2936197916667,148.53768682037108C1206.6692708333333,159.63014945629686,1251.4205729166667,181.81507472814846,1273.7962239583333,203.0742040307409C1296.171875,224.33333333333334,1296.171875,244.66666666666666,1296.171875,254.83333333333334L1296.171875,265" class="er relationshipLine"/><path style="stroke: gray; fill: none;" marker-start="url(#ZERO_OR_MORE_START)" marker-end="url(#ONLY_ONE_END)" d="M1161.91796875,112.31457902474273L1223.3430989583333,127.59548252061893C1284.7682291666667,142.87638601649516,1407.6184895833333,173.43819300824757,1469.0436197916667,200.71909650412377C1530.46875,228,1530.46875,252,1530.46875,264L1530.46875,276" class="er relationshipLine"/><g transform="translate(110.2578125,521 )" id="entity-Role-b2957ec1-0a10-42eb-954f-e77166c5e595"><rect height="68" width="100" y="0" x="0" class="er entityBox"/><text style="dominant-baseline: middle; text-anchor: middle; font-size: 12px;" transform="translate(50,12)" y="0" x="0" id="text-entity-Role-b2957ec1-0a10-42eb-954f-e77166c5e595" class="er entityLabel">Role</text><rect height="22" width="50" y="24" x="0" class="er attributeBoxOdd"/><text style="dominant-baseline: middle; font-size: 10.2px;" transform="translate(5,35)" y="0" x="0" id="text-entity-Role-b2957ec1-0a10-42eb-954f-e77166c5e595-attr-1-type" class="er entityLabel">USER</text><rect height="22" width="50" y="24" x="50" class="er attributeBoxOdd"/><text style="dominant-baseline: middle; font-size: 10.2px;" transform="translate(55,35)" y="0" x="0" id="text-entity-Role-b2957ec1-0a10-42eb-954f-e77166c5e595-attr-1-name" class="er entityLabel">USER</text><rect height="22" width="50" y="46" x="0" class="er attributeBoxEven"/><text style="dominant-baseline: middle; font-size: 10.2px;" transform="translate(5,57)" y="0" x="0" id="text-entity-Role-b2957ec1-0a10-42eb-954f-e77166c5e595-attr-2-type" class="er entityLabel">ADMIN</text><rect height="22" width="50" y="46" x="50" class="er attributeBoxEven"/><text style="dominant-baseline: middle; font-size: 10.2px;" transform="translate(55,57)" y="0" x="0" id="text-entity-Role-b2957ec1-0a10-42eb-954f-e77166c5e595-attr-2-name" class="er entityLabel">ADMIN</text></g><g transform="translate(20,276 )" id="entity-DeploymentStatus-223d12ec-8f6a-42f1-8440-20ae9de24d81"><rect height="90" width="127.3125" y="0" x="0" class="er entityBox"/><text style="dominant-baseline: middle; text-anchor: middle; font-size: 12px;" transform="translate(63.65625,12)" y="0" x="0" id="text-entity-DeploymentStatus-223d12ec-8f6a-42f1-8440-20ae9de24d81" class="er entityLabel">DeploymentStatus</text><rect height="22" width="63.65625" y="24" x="0" class="er attributeBoxOdd"/><text style="dominant-baseline: middle; font-size: 10.2px;" transform="translate(5,35)" y="0" x="0" id="text-entity-DeploymentStatus-223d12ec-8f6a-42f1-8440-20ae9de24d81-attr-1-type" class="er entityLabel">STARTING</text><rect height="22" width="63.65625" y="24" x="63.65625" class="er attributeBoxOdd"/><text style="dominant-baseline: middle; font-size: 10.2px;" transform="translate(68.65625,35)" y="0" x="0" id="text-entity-DeploymentStatus-223d12ec-8f6a-42f1-8440-20ae9de24d81-attr-1-name" class="er entityLabel">STARTING</text><rect height="22" width="63.65625" y="46" x="0" class="er attributeBoxEven"/><text style="dominant-baseline: middle; font-size: 10.2px;" transform="translate(5,57)" y="0" x="0" id="text-entity-DeploymentStatus-223d12ec-8f6a-42f1-8440-20ae9de24d81-attr-2-type" class="er entityLabel">READY</text><rect height="22" width="63.65625" y="46" x="63.65625" class="er attributeBoxEven"/><text style="dominant-baseline: middle; font-size: 10.2px;" transform="translate(68.65625,57)" y="0" x="0" id="text-entity-DeploymentStatus-223d12ec-8f6a-42f1-8440-20ae9de24d81-attr-2-name" class="er entityLabel">READY</text><rect height="22" width="63.65625" y="68" x="0" class="er attributeBoxOdd"/><text style="dominant-baseline: middle; font-size: 10.2px;" transform="translate(5,79)" y="0" x="0" id="text-entity-DeploymentStatus-223d12ec-8f6a-42f1-8440-20ae9de24d81-attr-3-type" class="er entityLabel">FAILED</text><rect height="22" width="63.65625" y="68" x="63.65625" class="er attributeBoxOdd"/><text style="dominant-baseline: middle; font-size: 10.2px;" transform="translate(68.65625,79)" y="0" x="0" id="text-entity-DeploymentStatus-223d12ec-8f6a-42f1-8440-20ae9de24d81-attr-3-name" class="er entityLabel">FAILED</text></g><g transform="translate(360.2578125,488 )" id="entity-User-b146117e-996e-408a-a0e8-afa171da22c4"><rect height="134" width="130.515625" y="0" x="0" class="er entityBox"/><text style="dominant-baseline: middle; text-anchor: middle; font-size: 12px;" transform="translate(65.2578125,12)" y="0" x="0" id="text-entity-User-b146117e-996e-408a-a0e8-afa171da22c4" class="er entityLabel">User</text><rect height="22" width="53.6640625" y="24" x="0" class="er attributeBoxOdd"/><text style="dominant-baseline: middle; font-size: 10.2px;" transform="translate(5,35)" y="0" x="0" id="text-entity-User-b146117e-996e-408a-a0e8-afa171da22c4-attr-1-type" class="er entityLabel">String</text><rect height="22" width="55.2890625" y="24" x="53.6640625" class="er attributeBoxOdd"/><text style="dominant-baseline: middle; font-size: 10.2px;" transform="translate(58.6640625,35)" y="0" x="0" id="text-entity-User-b146117e-996e-408a-a0e8-afa171da22c4-attr-1-name" class="er entityLabel">id</text><rect height="22" width="21.5625" y="24" x="108.953125" class="er attributeBoxOdd"/><text style="dominant-baseline: middle; font-size: 10.2px;" transform="translate(113.953125,35)" y="0" x="0" id="text-entity-User-b146117e-996e-408a-a0e8-afa171da22c4-attr-1-key" class="er entityLabel">PK</text><rect height="22" width="53.6640625" y="46" x="0" class="er attributeBoxEven"/><text style="dominant-baseline: middle; font-size: 10.2px;" transform="translate(5,57)" y="0" x="0" id="text-entity-User-b146117e-996e-408a-a0e8-afa171da22c4-attr-2-type" class="er entityLabel">String</text><rect height="22" width="55.2890625" y="46" x="53.6640625" class="er attributeBoxEven"/><text style="dominant-baseline: middle; font-size: 10.2px;" transform="translate(58.6640625,57)" y="0" x="0" id="text-entity-User-b146117e-996e-408a-a0e8-afa171da22c4-attr-2-name" class="er entityLabel">email</text><rect height="22" width="21.5625" y="46" x="108.953125" class="er attributeBoxEven"/><text style="dominant-baseline: middle; font-size: 10.2px;" transform="translate(113.953125,57)" y="0" x="0" id="text-entity-User-b146117e-996e-408a-a0e8-afa171da22c4-attr-2-key" class="er entityLabel"/><rect height="22" width="53.6640625" y="68" x="0" class="er attributeBoxOdd"/><text style="dominant-baseline: middle; font-size: 10.2px;" transform="translate(5,79)" y="0" x="0" id="text-entity-User-b146117e-996e-408a-a0e8-afa171da22c4-attr-3-type" class="er entityLabel">DateTime</text><rect height="22" width="55.2890625" y="68" x="53.6640625" class="er attributeBoxOdd"/><text style="dominant-baseline: middle; font-size: 10.2px;" transform="translate(58.6640625,79)" y="0" x="0" id="text-entity-User-b146117e-996e-408a-a0e8-afa171da22c4-attr-3-name" class="er entityLabel">createdAt</text><rect height="22" width="21.5625" y="68" x="108.953125" class="er attributeBoxOdd"/><text style="dominant-baseline: middle; font-size: 10.2px;" transform="translate(113.953125,79)" y="0" x="0" id="text-entity-User-b146117e-996e-408a-a0e8-afa171da22c4-attr-3-key" class="er entityLabel"/><rect height="22" width="53.6640625" y="90" x="0" class="er attributeBoxEven"/><text style="dominant-baseline: middle; font-size: 10.2px;" transform="translate(5,101)" y="0" x="0" id="text-entity-User-b146117e-996e-408a-a0e8-afa171da22c4-attr-4-type" class="er entityLabel">String</text><rect height="22" width="55.2890625" y="90" x="53.6640625" class="er attributeBoxEven"/><text style="dominant-baseline: middle; font-size: 10.2px;" transform="translate(58.6640625,101)" y="0" x="0" id="text-entity-User-b146117e-996e-408a-a0e8-afa171da22c4-attr-4-name" class="er entityLabel">subs</text><rect height="22" width="21.5625" y="90" x="108.953125" class="er attributeBoxEven"/><text style="dominant-baseline: middle; font-size: 10.2px;" transform="translate(113.953125,101)" y="0" x="0" id="text-entity-User-b146117e-996e-408a-a0e8-afa171da22c4-attr-4-key" class="er entityLabel"/><rect height="22" width="53.6640625" y="112" x="0" class="er attributeBoxOdd"/><text style="dominant-baseline: middle; font-size: 10.2px;" transform="translate(5,123)" y="0" x="0" id="text-entity-User-b146117e-996e-408a-a0e8-afa171da22c4-attr-5-type" class="er entityLabel">String</text><rect height="22" width="55.2890625" y="112" x="53.6640625" class="er attributeBoxOdd"/><text style="dominant-baseline: middle; font-size: 10.2px;" transform="translate(58.6640625,123)" y="0" x="0" id="text-entity-User-b146117e-996e-408a-a0e8-afa171da22c4-attr-5-name" class="er entityLabel">name</text><rect height="22" width="21.5625" y="112" x="108.953125" class="er attributeBoxOdd"/><text style="dominant-baseline: middle; font-size: 10.2px;" transform="translate(113.953125,123)" y="0" x="0" id="text-entity-User-b146117e-996e-408a-a0e8-afa171da22c4-attr-5-key" class="er entityLabel"/></g><g transform="translate(735.466796875,499 )" id="entity-Organization-35fa35a5-0b32-43c7-83a5-7a4cfb5421a3"><rect height="112" width="130.515625" y="0" x="0" class="er entityBox"/><text style="dominant-baseline: middle; text-anchor: middle; font-size: 12px;" transform="translate(65.2578125,12)" y="0" x="0" id="text-entity-Organization-35fa35a5-0b32-43c7-83a5-7a4cfb5421a3" class="er entityLabel">Organization</text><rect height="22" width="53.6640625" y="24" x="0" class="er attributeBoxOdd"/><text style="dominant-baseline: middle; font-size: 10.2px;" transform="translate(5,35)" y="0" x="0" id="text-entity-Organization-35fa35a5-0b32-43c7-83a5-7a4cfb5421a3-attr-1-type" class="er entityLabel">String</text><rect height="22" width="55.2890625" y="24" x="53.6640625" class="er attributeBoxOdd"/><text style="dominant-baseline: middle; font-size: 10.2px;" transform="translate(58.6640625,35)" y="0" x="0" id="text-entity-Organization-35fa35a5-0b32-43c7-83a5-7a4cfb5421a3-attr-1-name" class="er entityLabel">id</text><rect height="22" width="21.5625" y="24" x="108.953125" class="er attributeBoxOdd"/><text style="dominant-baseline: middle; font-size: 10.2px;" transform="translate(113.953125,35)" y="0" x="0" id="text-entity-Organization-35fa35a5-0b32-43c7-83a5-7a4cfb5421a3-attr-1-key" class="er entityLabel">PK</text><rect height="22" width="53.6640625" y="46" x="0" class="er attributeBoxEven"/><text style="dominant-baseline: middle; font-size: 10.2px;" transform="translate(5,57)" y="0" x="0" id="text-entity-Organization-35fa35a5-0b32-43c7-83a5-7a4cfb5421a3-attr-2-type" class="er entityLabel">String</text><rect height="22" width="55.2890625" y="46" x="53.6640625" class="er attributeBoxEven"/><text style="dominant-baseline: middle; font-size: 10.2px;" transform="translate(58.6640625,57)" y="0" x="0" id="text-entity-Organization-35fa35a5-0b32-43c7-83a5-7a4cfb5421a3-attr-2-name" class="er entityLabel">name</text><rect height="22" width="21.5625" y="46" x="108.953125" class="er attributeBoxEven"/><text style="dominant-baseline: middle; font-size: 10.2px;" transform="translate(113.953125,57)" y="0" x="0" id="text-entity-Organization-35fa35a5-0b32-43c7-83a5-7a4cfb5421a3-attr-2-key" class="er entityLabel"/><rect height="22" width="53.6640625" y="68" x="0" class="er attributeBoxOdd"/><text style="dominant-baseline: middle; font-size: 10.2px;" transform="translate(5,79)" y="0" x="0" id="text-entity-Organization-35fa35a5-0b32-43c7-83a5-7a4cfb5421a3-attr-3-type" class="er entityLabel">String</text><rect height="22" width="55.2890625" y="68" x="53.6640625" class="er attributeBoxOdd"/><text style="dominant-baseline: middle; font-size: 10.2px;" transform="translate(58.6640625,79)" y="0" x="0" id="text-entity-Organization-35fa35a5-0b32-43c7-83a5-7a4cfb5421a3-attr-3-name" class="er entityLabel">slug</text><rect height="22" width="21.5625" y="68" x="108.953125" class="er attributeBoxOdd"/><text style="dominant-baseline: middle; font-size: 10.2px;" transform="translate(113.953125,79)" y="0" x="0" id="text-entity-Organization-35fa35a5-0b32-43c7-83a5-7a4cfb5421a3-attr-3-key" class="er entityLabel"/><rect height="22" width="53.6640625" y="90" x="0" class="er attributeBoxEven"/><text style="dominant-baseline: middle; font-size: 10.2px;" transform="translate(5,101)" y="0" x="0" id="text-entity-Organization-35fa35a5-0b32-43c7-83a5-7a4cfb5421a3-attr-4-type" class="er entityLabel">DateTime</text><rect height="22" width="55.2890625" y="90" x="53.6640625" class="er attributeBoxEven"/><text style="dominant-baseline: middle; font-size: 10.2px;" transform="translate(58.6640625,101)" y="0" x="0" id="text-entity-Organization-35fa35a5-0b32-43c7-83a5-7a4cfb5421a3-attr-4-name" class="er entityLabel">createdAt</text><rect height="22" width="21.5625" y="90" x="108.953125" class="er attributeBoxEven"/><text style="dominant-baseline: middle; font-size: 10.2px;" transform="translate(113.953125,101)" y="0" x="0" id="text-entity-Organization-35fa35a5-0b32-43c7-83a5-7a4cfb5421a3-attr-4-key" class="er entityLabel"/></g><g transform="translate(247.3125,287 )" id="entity-OrganizationMember-7330e1c5-c736-4e61-a29a-703acd204864"><rect height="68" width="141.1484375" y="0" x="0" class="er entityBox"/><text style="dominant-baseline: middle; text-anchor: middle; font-size: 12px;" transform="translate(70.57421875,12)" y="0" x="0" id="text-entity-OrganizationMember-7330e1c5-c736-4e61-a29a-703acd204864" class="er entityLabel">OrganizationMember</text><rect height="22" width="72.90234375" y="24" x="0" class="er attributeBoxOdd"/><text style="dominant-baseline: middle; font-size: 10.2px;" transform="translate(5,35)" y="0" x="0" id="text-entity-OrganizationMember-7330e1c5-c736-4e61-a29a-703acd204864-attr-1-type" class="er entityLabel">Role</text><rect height="22" width="68.24609375" y="24" x="72.90234375" class="er attributeBoxOdd"/><text style="dominant-baseline: middle; font-size: 10.2px;" transform="translate(77.90234375,35)" y="0" x="0" id="text-entity-OrganizationMember-7330e1c5-c736-4e61-a29a-703acd204864-attr-1-name" class="er entityLabel">role</text><rect height="22" width="72.90234375" y="46" x="0" class="er attributeBoxEven"/><text style="dominant-baseline: middle; font-size: 10.2px;" transform="translate(5,57)" y="0" x="0" id="text-entity-OrganizationMember-7330e1c5-c736-4e61-a29a-703acd204864-attr-2-type" class="er entityLabel">DateTime</text><rect height="22" width="68.24609375" y="46" x="72.90234375" class="er attributeBoxEven"/><text style="dominant-baseline: middle; font-size: 10.2px;" transform="translate(77.90234375,57)" y="0" x="0" id="text-entity-OrganizationMember-7330e1c5-c736-4e61-a29a-703acd204864-attr-2-name" class="er entityLabel">joinedAt</text></g><g transform="translate(718.9765625,276 )" id="entity-OrganizationInvite-28833110-82d4-4ce3-b81b-698838a4ee2f"><rect height="90" width="184.0703125" y="0" x="0" class="er entityBox"/><text style="dominant-baseline: middle; text-anchor: middle; font-size: 12px;" transform="translate(92.03515625,12)" y="0" x="0" id="text-entity-OrganizationInvite-28833110-82d4-4ce3-b81b-698838a4ee2f" class="er entityLabel">OrganizationInvite</text><rect height="22" width="53.6640625" y="24" x="0" class="er attributeBoxOdd"/><text style="dominant-baseline: middle; font-size: 10.2px;" transform="translate(5,35)" y="0" x="0" id="text-entity-OrganizationInvite-28833110-82d4-4ce3-b81b-698838a4ee2f-attr-1-type" class="er entityLabel">DateTime</text><rect height="22" width="62.0625" y="24" x="53.6640625" class="er attributeBoxOdd"/><text style="dominant-baseline: middle; font-size: 10.2px;" transform="translate(58.6640625,35)" y="0" x="0" id="text-entity-OrganizationInvite-28833110-82d4-4ce3-b81b-698838a4ee2f-attr-1-name" class="er entityLabel">createdAt</text><rect height="22" width="21.5625" y="24" x="115.7265625" class="er attributeBoxOdd"/><text style="dominant-baseline: middle; font-size: 10.2px;" transform="translate(120.7265625,35)" y="0" x="0" id="text-entity-OrganizationInvite-28833110-82d4-4ce3-b81b-698838a4ee2f-attr-1-key" class="er entityLabel"/><rect height="22" width="46.78125" y="24" x="137.2890625" class="er attributeBoxOdd"/><text style="dominant-baseline: middle; font-size: 10.2px;" transform="translate(142.2890625,35)" y="0" x="0" id="text-entity-OrganizationInvite-28833110-82d4-4ce3-b81b-698838a4ee2f-attr-1-comment" class="er entityLabel"/><rect height="22" width="53.6640625" y="46" x="0" class="er attributeBoxEven"/><text style="dominant-baseline: middle; font-size: 10.2px;" transform="translate(5,57)" y="0" x="0" id="text-entity-OrganizationInvite-28833110-82d4-4ce3-b81b-698838a4ee2f-attr-2-type" class="er entityLabel">String</text><rect height="22" width="62.0625" y="46" x="53.6640625" class="er attributeBoxEven"/><text style="dominant-baseline: middle; font-size: 10.2px;" transform="translate(58.6640625,57)" y="0" x="0" id="text-entity-OrganizationInvite-28833110-82d4-4ce3-b81b-698838a4ee2f-attr-2-name" class="er entityLabel">email</text><rect height="22" width="21.5625" y="46" x="115.7265625" class="er attributeBoxEven"/><text style="dominant-baseline: middle; font-size: 10.2px;" transform="translate(120.7265625,57)" y="0" x="0" id="text-entity-OrganizationInvite-28833110-82d4-4ce3-b81b-698838a4ee2f-attr-2-key" class="er entityLabel">PK</text><rect height="22" width="46.78125" y="46" x="137.2890625" class="er attributeBoxEven"/><text style="dominant-baseline: middle; font-size: 10.2px;" transform="translate(142.2890625,57)" y="0" x="0" id="text-entity-OrganizationInvite-28833110-82d4-4ce3-b81b-698838a4ee2f-attr-2-comment" class="er entityLabel"/><rect height="22" width="53.6640625" y="68" x="0" class="er attributeBoxOdd"/><text style="dominant-baseline: middle; font-size: 10.2px;" transform="translate(5,79)" y="0" x="0" id="text-entity-OrganizationInvite-28833110-82d4-4ce3-b81b-698838a4ee2f-attr-3-type" class="er entityLabel">DateTime</text><rect height="22" width="62.0625" y="68" x="53.6640625" class="er attributeBoxOdd"/><text style="dominant-baseline: middle; font-size: 10.2px;" transform="translate(58.6640625,79)" y="0" x="0" id="text-entity-OrganizationInvite-28833110-82d4-4ce3-b81b-698838a4ee2f-attr-3-name" class="er entityLabel">acceptedAt</text><rect height="22" width="21.5625" y="68" x="115.7265625" class="er attributeBoxOdd"/><text style="dominant-baseline: middle; font-size: 10.2px;" transform="translate(120.7265625,79)" y="0" x="0" id="text-entity-OrganizationInvite-28833110-82d4-4ce3-b81b-698838a4ee2f-attr-3-key" class="er entityLabel"/><rect height="22" width="46.78125" y="68" x="137.2890625" class="er attributeBoxOdd"/><text style="dominant-baseline: middle; font-size: 10.2px;" transform="translate(142.2890625,79)" y="0" x="0" id="text-entity-OrganizationInvite-28833110-82d4-4ce3-b81b-698838a4ee2f-attr-3-comment" class="er entityLabel">nullable</text></g><g transform="translate(488.4609375,276 )" id="entity-Application-45247307-6ca6-4bc0-a451-60e7f35d5c41"><rect height="90" width="130.515625" y="0" x="0" class="er entityBox"/><text style="dominant-baseline: middle; text-anchor: middle; font-size: 12px;" transform="translate(65.2578125,12)" y="0" x="0" id="text-entity-Application-45247307-6ca6-4bc0-a451-60e7f35d5c41" class="er entityLabel">Application</text><rect height="22" width="53.6640625" y="24" x="0" class="er attributeBoxOdd"/><text style="dominant-baseline: middle; font-size: 10.2px;" transform="translate(5,35)" y="0" x="0" id="text-entity-Application-45247307-6ca6-4bc0-a451-60e7f35d5c41-attr-1-type" class="er entityLabel">String</text><rect height="22" width="55.2890625" y="24" x="53.6640625" class="er attributeBoxOdd"/><text style="dominant-baseline: middle; font-size: 10.2px;" transform="translate(58.6640625,35)" y="0" x="0" id="text-entity-Application-45247307-6ca6-4bc0-a451-60e7f35d5c41-attr-1-name" class="er entityLabel">id</text><rect height="22" width="21.5625" y="24" x="108.953125" class="er attributeBoxOdd"/><text style="dominant-baseline: middle; font-size: 10.2px;" transform="translate(113.953125,35)" y="0" x="0" id="text-entity-Application-45247307-6ca6-4bc0-a451-60e7f35d5c41-attr-1-key" class="er entityLabel">PK</text><rect height="22" width="53.6640625" y="46" x="0" class="er attributeBoxEven"/><text style="dominant-baseline: middle; font-size: 10.2px;" transform="translate(5,57)" y="0" x="0" id="text-entity-Application-45247307-6ca6-4bc0-a451-60e7f35d5c41-attr-2-type" class="er entityLabel">String</text><rect height="22" width="55.2890625" y="46" x="53.6640625" class="er attributeBoxEven"/><text style="dominant-baseline: middle; font-size: 10.2px;" transform="translate(58.6640625,57)" y="0" x="0" id="text-entity-Application-45247307-6ca6-4bc0-a451-60e7f35d5c41-attr-2-name" class="er entityLabel">name</text><rect height="22" width="21.5625" y="46" x="108.953125" class="er attributeBoxEven"/><text style="dominant-baseline: middle; font-size: 10.2px;" transform="translate(113.953125,57)" y="0" x="0" id="text-entity-Application-45247307-6ca6-4bc0-a451-60e7f35d5c41-attr-2-key" class="er entityLabel"/><rect height="22" width="53.6640625" y="68" x="0" class="er attributeBoxOdd"/><text style="dominant-baseline: middle; font-size: 10.2px;" transform="translate(5,79)" y="0" x="0" id="text-entity-Application-45247307-6ca6-4bc0-a451-60e7f35d5c41-attr-3-type" class="er entityLabel">DateTime</text><rect height="22" width="55.2890625" y="68" x="53.6640625" class="er attributeBoxOdd"/><text style="dominant-baseline: middle; font-size: 10.2px;" transform="translate(58.6640625,79)" y="0" x="0" id="text-entity-Application-45247307-6ca6-4bc0-a451-60e7f35d5c41-attr-3-name" class="er entityLabel">createdAt</text><rect height="22" width="21.5625" y="68" x="108.953125" class="er attributeBoxOdd"/><text style="dominant-baseline: middle; font-size: 10.2px;" transform="translate(113.953125,79)" y="0" x="0" id="text-entity-Application-45247307-6ca6-4bc0-a451-60e7f35d5c41-attr-3-key" class="er entityLabel"/></g><g transform="translate(1003.046875,254 )" id="entity-Chain-9840eeed-144e-4072-8562-337f03186982"><rect height="134" width="114.2265625" y="0" x="0" class="er entityBox"/><text style="dominant-baseline: middle; text-anchor: middle; font-size: 12px;" transform="translate(57.11328125,12)" y="0" x="0" id="text-entity-Chain-9840eeed-144e-4072-8562-337f03186982" class="er entityLabel">Chain</text><rect height="22" width="46.2265625" y="24" x="0" class="er attributeBoxOdd"/><text style="dominant-baseline: middle; font-size: 10.2px;" transform="translate(5,35)" y="0" x="0" id="text-entity-Chain-9840eeed-144e-4072-8562-337f03186982-attr-1-type" class="er entityLabel">Int</text><rect height="22" width="46.4375" y="24" x="46.2265625" class="er attributeBoxOdd"/><text style="dominant-baseline: middle; font-size: 10.2px;" transform="translate(51.2265625,35)" y="0" x="0" id="text-entity-Chain-9840eeed-144e-4072-8562-337f03186982-attr-1-name" class="er entityLabel">id</text><rect height="22" width="21.5625" y="24" x="92.6640625" class="er attributeBoxOdd"/><text style="dominant-baseline: middle; font-size: 10.2px;" transform="translate(97.6640625,35)" y="0" x="0" id="text-entity-Chain-9840eeed-144e-4072-8562-337f03186982-attr-1-key" class="er entityLabel">PK</text><rect height="22" width="46.2265625" y="46" x="0" class="er attributeBoxEven"/><text style="dominant-baseline: middle; font-size: 10.2px;" transform="translate(5,57)" y="0" x="0" id="text-entity-Chain-9840eeed-144e-4072-8562-337f03186982-attr-2-type" class="er entityLabel">String</text><rect height="22" width="46.4375" y="46" x="46.2265625" class="er attributeBoxEven"/><text style="dominant-baseline: middle; font-size: 10.2px;" transform="translate(51.2265625,57)" y="0" x="0" id="text-entity-Chain-9840eeed-144e-4072-8562-337f03186982-attr-2-name" class="er entityLabel">name</text><rect height="22" width="21.5625" y="46" x="92.6640625" class="er attributeBoxEven"/><text style="dominant-baseline: middle; font-size: 10.2px;" transform="translate(97.6640625,57)" y="0" x="0" id="text-entity-Chain-9840eeed-144e-4072-8562-337f03186982-attr-2-key" class="er entityLabel"/><rect height="22" width="46.2265625" y="68" x="0" class="er attributeBoxOdd"/><text style="dominant-baseline: middle; font-size: 10.2px;" transform="translate(5,79)" y="0" x="0" id="text-entity-Chain-9840eeed-144e-4072-8562-337f03186982-attr-3-type" class="er entityLabel">String</text><rect height="22" width="46.4375" y="68" x="46.2265625" class="er attributeBoxOdd"/><text style="dominant-baseline: middle; font-size: 10.2px;" transform="translate(51.2265625,79)" y="0" x="0" id="text-entity-Chain-9840eeed-144e-4072-8562-337f03186982-attr-3-name" class="er entityLabel">label</text><rect height="22" width="21.5625" y="68" x="92.6640625" class="er attributeBoxOdd"/><text style="dominant-baseline: middle; font-size: 10.2px;" transform="translate(97.6640625,79)" y="0" x="0" id="text-entity-Chain-9840eeed-144e-4072-8562-337f03186982-attr-3-key" class="er entityLabel"/><rect height="22" width="46.2265625" y="90" x="0" class="er attributeBoxEven"/><text style="dominant-baseline: middle; font-size: 10.2px;" transform="translate(5,101)" y="0" x="0" id="text-entity-Chain-9840eeed-144e-4072-8562-337f03186982-attr-4-type" class="er entityLabel">Boolean</text><rect height="22" width="46.4375" y="90" x="46.2265625" class="er attributeBoxEven"/><text style="dominant-baseline: middle; font-size: 10.2px;" transform="translate(51.2265625,101)" y="0" x="0" id="text-entity-Chain-9840eeed-144e-4072-8562-337f03186982-attr-4-name" class="er entityLabel">testnet</text><rect height="22" width="21.5625" y="90" x="92.6640625" class="er attributeBoxEven"/><text style="dominant-baseline: middle; font-size: 10.2px;" transform="translate(97.6640625,101)" y="0" x="0" id="text-entity-Chain-9840eeed-144e-4072-8562-337f03186982-attr-4-key" class="er entityLabel"/><rect height="22" width="46.2265625" y="112" x="0" class="er attributeBoxOdd"/><text style="dominant-baseline: middle; font-size: 10.2px;" transform="translate(5,123)" y="0" x="0" id="text-entity-Chain-9840eeed-144e-4072-8562-337f03186982-attr-5-type" class="er entityLabel">Boolean</text><rect height="22" width="46.4375" y="112" x="46.2265625" class="er attributeBoxOdd"/><text style="dominant-baseline: middle; font-size: 10.2px;" transform="translate(51.2265625,123)" y="0" x="0" id="text-entity-Chain-9840eeed-144e-4072-8562-337f03186982-attr-5-name" class="er entityLabel">enabled</text><rect height="22" width="21.5625" y="112" x="92.6640625" class="er attributeBoxOdd"/><text style="dominant-baseline: middle; font-size: 10.2px;" transform="translate(97.6640625,123)" y="0" x="0" id="text-entity-Chain-9840eeed-144e-4072-8562-337f03186982-attr-5-key" class="er entityLabel"/></g><g transform="translate(1217.2734375,265 )" id="entity-Region-bea947fd-968f-4ccf-bc7f-9c0dc0bbb11e"><rect height="112" width="157.796875" y="0" x="0" class="er entityBox"/><text style="dominant-baseline: middle; text-anchor: middle; font-size: 12px;" transform="translate(78.8984375,12)" y="0" x="0" id="text-entity-Region-bea947fd-968f-4ccf-bc7f-9c0dc0bbb11e" class="er entityLabel">Region</text><rect height="22" width="46.2265625" y="24" x="0" class="er attributeBoxOdd"/><text style="dominant-baseline: middle; font-size: 10.2px;" transform="translate(5,35)" y="0" x="0" id="text-entity-Region-bea947fd-968f-4ccf-bc7f-9c0dc0bbb11e-attr-1-type" class="er entityLabel">String</text><rect height="22" width="90.0078125" y="24" x="46.2265625" class="er attributeBoxOdd"/><text style="dominant-baseline: middle; font-size: 10.2px;" transform="translate(51.2265625,35)" y="0" x="0" id="text-entity-Region-bea947fd-968f-4ccf-bc7f-9c0dc0bbb11e-attr-1-name" class="er entityLabel">id</text><rect height="22" width="21.5625" y="24" x="136.234375" class="er attributeBoxOdd"/><text style="dominant-baseline: middle; font-size: 10.2px;" transform="translate(141.234375,35)" y="0" x="0" id="text-entity-Region-bea947fd-968f-4ccf-bc7f-9c0dc0bbb11e-attr-1-key" class="er entityLabel">PK</text><rect height="22" width="46.2265625" y="46" x="0" class="er attributeBoxEven"/><text style="dominant-baseline: middle; font-size: 10.2px;" transform="translate(5,57)" y="0" x="0" id="text-entity-Region-bea947fd-968f-4ccf-bc7f-9c0dc0bbb11e-attr-2-type" class="er entityLabel">String</text><rect height="22" width="90.0078125" y="46" x="46.2265625" class="er attributeBoxEven"/><text style="dominant-baseline: middle; font-size: 10.2px;" transform="translate(51.2265625,57)" y="0" x="0" id="text-entity-Region-bea947fd-968f-4ccf-bc7f-9c0dc0bbb11e-attr-2-name" class="er entityLabel">name</text><rect height="22" width="21.5625" y="46" x="136.234375" class="er attributeBoxEven"/><text style="dominant-baseline: middle; font-size: 10.2px;" transform="translate(141.234375,57)" y="0" x="0" id="text-entity-Region-bea947fd-968f-4ccf-bc7f-9c0dc0bbb11e-attr-2-key" class="er entityLabel"/><rect height="22" width="46.2265625" y="68" x="0" class="er attributeBoxOdd"/><text style="dominant-baseline: middle; font-size: 10.2px;" transform="translate(5,79)" y="0" x="0" id="text-entity-Region-bea947fd-968f-4ccf-bc7f-9c0dc0bbb11e-attr-3-type" class="er entityLabel">String</text><rect height="22" width="90.0078125" y="68" x="46.2265625" class="er attributeBoxOdd"/><text style="dominant-baseline: middle; font-size: 10.2px;" transform="translate(51.2265625,79)" y="0" x="0" id="text-entity-Region-bea947fd-968f-4ccf-bc7f-9c0dc0bbb11e-attr-3-name" class="er entityLabel">kubeConfigSecret</text><rect height="22" width="21.5625" y="68" x="136.234375" class="er attributeBoxOdd"/><text style="dominant-baseline: middle; font-size: 10.2px;" transform="translate(141.234375,79)" y="0" x="0" id="text-entity-Region-bea947fd-968f-4ccf-bc7f-9c0dc0bbb11e-attr-3-key" class="er entityLabel"/><rect height="22" width="46.2265625" y="90" x="0" class="er attributeBoxEven"/><text style="dominant-baseline: middle; font-size: 10.2px;" transform="translate(5,101)" y="0" x="0" id="text-entity-Region-bea947fd-968f-4ccf-bc7f-9c0dc0bbb11e-attr-4-type" class="er entityLabel">Boolean</text><rect height="22" width="90.0078125" y="90" x="46.2265625" class="er attributeBoxEven"/><text style="dominant-baseline: middle; font-size: 10.2px;" transform="translate(51.2265625,101)" y="0" x="0" id="text-entity-Region-bea947fd-968f-4ccf-bc7f-9c0dc0bbb11e-attr-4-name" class="er entityLabel">default</text><rect height="22" width="21.5625" y="90" x="136.234375" class="er attributeBoxEven"/><text style="dominant-baseline: middle; font-size: 10.2px;" transform="translate(141.234375,101)" y="0" x="0" id="text-entity-Region-bea947fd-968f-4ccf-bc7f-9c0dc0bbb11e-attr-4-key" class="er entityLabel"/></g><g transform="translate(1475.0703125,276 )" id="entity-Runtime-7b1358be-ddd4-4b08-befb-fd88e99b3644"><rect height="90" width="110.796875" y="0" x="0" class="er entityBox"/><text style="dominant-baseline: middle; text-anchor: middle; font-size: 12px;" transform="translate(55.3984375,12)" y="0" x="0" id="text-entity-Runtime-7b1358be-ddd4-4b08-befb-fd88e99b3644" class="er entityLabel">Runtime</text><rect height="22" width="46.2265625" y="24" x="0" class="er attributeBoxOdd"/><text style="dominant-baseline: middle; font-size: 10.2px;" transform="translate(5,35)" y="0" x="0" id="text-entity-Runtime-7b1358be-ddd4-4b08-befb-fd88e99b3644-attr-1-type" class="er entityLabel">String</text><rect height="22" width="43.0078125" y="24" x="46.2265625" class="er attributeBoxOdd"/><text style="dominant-baseline: middle; font-size: 10.2px;" transform="translate(51.2265625,35)" y="0" x="0" id="text-entity-Runtime-7b1358be-ddd4-4b08-befb-fd88e99b3644-attr-1-name" class="er entityLabel">id</text><rect height="22" width="21.5625" y="24" x="89.234375" class="er attributeBoxOdd"/><text style="dominant-baseline: middle; font-size: 10.2px;" transform="translate(94.234375,35)" y="0" x="0" id="text-entity-Runtime-7b1358be-ddd4-4b08-befb-fd88e99b3644-attr-1-key" class="er entityLabel">PK</text><rect height="22" width="46.2265625" y="46" x="0" class="er attributeBoxEven"/><text style="dominant-baseline: middle; font-size: 10.2px;" transform="translate(5,57)" y="0" x="0" id="text-entity-Runtime-7b1358be-ddd4-4b08-befb-fd88e99b3644-attr-2-type" class="er entityLabel">String</text><rect height="22" width="43.0078125" y="46" x="46.2265625" class="er attributeBoxEven"/><text style="dominant-baseline: middle; font-size: 10.2px;" transform="translate(51.2265625,57)" y="0" x="0" id="text-entity-Runtime-7b1358be-ddd4-4b08-befb-fd88e99b3644-attr-2-name" class="er entityLabel">name</text><rect height="22" width="21.5625" y="46" x="89.234375" class="er attributeBoxEven"/><text style="dominant-baseline: middle; font-size: 10.2px;" transform="translate(94.234375,57)" y="0" x="0" id="text-entity-Runtime-7b1358be-ddd4-4b08-befb-fd88e99b3644-attr-2-key" class="er entityLabel"/><rect height="22" width="46.2265625" y="68" x="0" class="er attributeBoxOdd"/><text style="dominant-baseline: middle; font-size: 10.2px;" transform="translate(5,79)" y="0" x="0" id="text-entity-Runtime-7b1358be-ddd4-4b08-befb-fd88e99b3644-attr-3-type" class="er entityLabel">Boolean</text><rect height="22" width="43.0078125" y="68" x="46.2265625" class="er attributeBoxOdd"/><text style="dominant-baseline: middle; font-size: 10.2px;" transform="translate(51.2265625,79)" y="0" x="0" id="text-entity-Runtime-7b1358be-ddd4-4b08-befb-fd88e99b3644-attr-3-name" class="er entityLabel">default</text><rect height="22" width="21.5625" y="68" x="89.234375" class="er attributeBoxOdd"/><text style="dominant-baseline: middle; font-size: 10.2px;" transform="translate(94.234375,79)" y="0" x="0" id="text-entity-Runtime-7b1358be-ddd4-4b08-befb-fd88e99b3644-attr-3-key" class="er entityLabel"/></g><g transform="translate(958.40234375,20 )" id="entity-Deployment-93ca311b-5a0d-4092-8cef-3ee82d090693"><rect height="134" width="203.515625" y="0" x="0" class="er entityBox"/><text style="dominant-baseline: middle; text-anchor: middle; font-size: 12px;" transform="translate(101.7578125,12)" y="0" x="0" id="text-entity-Deployment-93ca311b-5a0d-4092-8cef-3ee82d090693" class="er entityLabel">Deployment</text><rect height="22" width="92.71875" y="24" x="0" class="er attributeBoxOdd"/><text style="dominant-baseline: middle; font-size: 10.2px;" transform="translate(5,35)" y="0" x="0" id="text-entity-Deployment-93ca311b-5a0d-4092-8cef-3ee82d090693-attr-1-type" class="er entityLabel">String</text><rect height="22" width="89.234375" y="24" x="92.71875" class="er attributeBoxOdd"/><text style="dominant-baseline: middle; font-size: 10.2px;" transform="translate(97.71875,35)" y="0" x="0" id="text-entity-Deployment-93ca311b-5a0d-4092-8cef-3ee82d090693-attr-1-name" class="er entityLabel">id</text><rect height="22" width="21.5625" y="24" x="181.953125" class="er attributeBoxOdd"/><text style="dominant-baseline: middle; font-size: 10.2px;" transform="translate(186.953125,35)" y="0" x="0" id="text-entity-Deployment-93ca311b-5a0d-4092-8cef-3ee82d090693-attr-1-key" class="er entityLabel">PK</text><rect height="22" width="92.71875" y="46" x="0" class="er attributeBoxEven"/><text style="dominant-baseline: middle; font-size: 10.2px;" transform="translate(5,57)" y="0" x="0" id="text-entity-Deployment-93ca311b-5a0d-4092-8cef-3ee82d090693-attr-2-type" class="er entityLabel">DateTime</text><rect height="22" width="89.234375" y="46" x="92.71875" class="er attributeBoxEven"/><text style="dominant-baseline: middle; font-size: 10.2px;" transform="translate(97.71875,57)" y="0" x="0" id="text-entity-Deployment-93ca311b-5a0d-4092-8cef-3ee82d090693-attr-2-name" class="er entityLabel">createdAt</text><rect height="22" width="21.5625" y="46" x="181.953125" class="er attributeBoxEven"/><text style="dominant-baseline: middle; font-size: 10.2px;" transform="translate(186.953125,57)" y="0" x="0" id="text-entity-Deployment-93ca311b-5a0d-4092-8cef-3ee82d090693-attr-2-key" class="er entityLabel"/><rect height="22" width="92.71875" y="68" x="0" class="er attributeBoxOdd"/><text style="dominant-baseline: middle; font-size: 10.2px;" transform="translate(5,79)" y="0" x="0" id="text-entity-Deployment-93ca311b-5a0d-4092-8cef-3ee82d090693-attr-3-type" class="er entityLabel">String</text><rect height="22" width="89.234375" y="68" x="92.71875" class="er attributeBoxOdd"/><text style="dominant-baseline: middle; font-size: 10.2px;" transform="translate(97.71875,79)" y="0" x="0" id="text-entity-Deployment-93ca311b-5a0d-4092-8cef-3ee82d090693-attr-3-name" class="er entityLabel">contractAddress</text><rect height="22" width="21.5625" y="68" x="181.953125" class="er attributeBoxOdd"/><text style="dominant-baseline: middle; font-size: 10.2px;" transform="translate(186.953125,79)" y="0" x="0" id="text-entity-Deployment-93ca311b-5a0d-4092-8cef-3ee82d090693-attr-3-key" class="er entityLabel"/><rect height="22" width="92.71875" y="90" x="0" class="er attributeBoxEven"/><text style="dominant-baseline: middle; font-size: 10.2px;" transform="translate(5,101)" y="0" x="0" id="text-entity-Deployment-93ca311b-5a0d-4092-8cef-3ee82d090693-attr-4-type" class="er entityLabel">String</text><rect height="22" width="89.234375" y="90" x="92.71875" class="er attributeBoxEven"/><text style="dominant-baseline: middle; font-size: 10.2px;" transform="translate(97.71875,101)" y="0" x="0" id="text-entity-Deployment-93ca311b-5a0d-4092-8cef-3ee82d090693-attr-4-name" class="er entityLabel">machineSnapshot</text><rect height="22" width="21.5625" y="90" x="181.953125" class="er attributeBoxEven"/><text style="dominant-baseline: middle; font-size: 10.2px;" transform="translate(186.953125,101)" y="0" x="0" id="text-entity-Deployment-93ca311b-5a0d-4092-8cef-3ee82d090693-attr-4-key" class="er entityLabel"/><rect height="22" width="92.71875" y="112" x="0" class="er attributeBoxOdd"/><text style="dominant-baseline: middle; font-size: 10.2px;" transform="translate(5,123)" y="0" x="0" id="text-entity-Deployment-93ca311b-5a0d-4092-8cef-3ee82d090693-attr-5-type" class="er entityLabel">DeploymentStatus</text><rect height="22" width="89.234375" y="112" x="92.71875" class="er attributeBoxOdd"/><text style="dominant-baseline: middle; font-size: 10.2px;" transform="translate(97.71875,123)" y="0" x="0" id="text-entity-Deployment-93ca311b-5a0d-4092-8cef-3ee82d090693-attr-5-name" class="er entityLabel">status</text><rect height="22" width="21.5625" y="112" x="181.953125" class="er attributeBoxOdd"/><text style="dominant-baseline: middle; font-size: 10.2px;" transform="translate(186.953125,123)" y="0" x="0" id="text-entity-Deployment-93ca311b-5a0d-4092-8cef-3ee82d090693-attr-5-key" class="er entityLabel"/></g><rect height="14" width="55.21875" y="415.8056945800781" x="163.24205017089844" class="er relationshipLabelBox"/><text style="text-anchor: middle; dominant-baseline: middle; font-size: 12px;" y="422.8056945800781" x="190.85142517089844" id="rel1" class="er relationshipLabel">enum:role</text><rect height="14" width="66.5859375" y="398.342529296875" x="541.0486450195312" class="er relationshipLabelBox"/><text style="text-anchor: middle; dominant-baseline: middle; font-size: 12px;" y="405.342529296875" x="574.3416137695312" id="rel2" class="er relationshipLabel">organization</text><rect height="14" width="22.625" y="420.61395263671875" x="312.6951904296875" class="er relationshipLabelBox"/><text style="text-anchor: middle; dominant-baseline: middle; font-size: 12px;" y="427.61395263671875" x="324.0076904296875" id="rel3" class="er relationshipLabel">user</text><rect height="14" width="66.5859375" y="425.5799865722656" x="776.9608154296875" class="er relationshipLabelBox"/><text style="text-anchor: middle; dominant-baseline: middle; font-size: 12px;" y="432.5799865722656" x="810.2537841796875" id="rel4" class="er relationshipLabel">organization</text><rect height="14" width="39.3203125" y="432.5859069824219" x="521.4845581054688" class="er relationshipLabelBox"/><text style="text-anchor: middle; dominant-baseline: middle; font-size: 12px;" y="439.5859069824219" x="541.1447143554688" id="rel5" class="er relationshipLabel">creator</text><rect height="14" width="66.5859375" y="389.63702392578125" x="744.0918579101562" class="er relationshipLabelBox"/><text style="text-anchor: middle; dominant-baseline: middle; font-size: 12px;" y="396.63702392578125" x="777.3848266601562" id="rel6" class="er relationshipLabel">organization</text><rect height="14" width="60.0625" y="157.37364196777344" x="704.83642578125" class="er relationshipLabelBox"/><text style="text-anchor: middle; dominant-baseline: middle; font-size: 12px;" y="164.37364196777344" x="734.86767578125" id="rel7" class="er relationshipLabel">application</text><rect height="14" width="66.1171875" y="148.3686065673828" x="471.0518493652344" class="er relationshipLabelBox"/><text style="text-anchor: middle; dominant-baseline: middle; font-size: 12px;" y="155.3686065673828" x="504.1104431152344" id="rel8" class="er relationshipLabel">enum:status</text><rect height="14" width="28.78125" y="197" x="1045.76953125" class="er relationshipLabelBox"/><text style="text-anchor: middle; dominant-baseline: middle; font-size: 12px;" y="204" x="1060.16015625" id="rel9" class="er relationshipLabel">chain</text><rect height="14" width="33.65625" y="177.3474884033203" x="1232.5032958984375" class="er relationshipLabelBox"/><text style="text-anchor: middle; dominant-baseline: middle; font-size: 12px;" y="184.3474884033203" x="1249.3314208984375" id="rel10" class="er relationshipLabel">region</text><rect height="14" width="42.46875" y="158.8724822998047" x="1346.6273193359375" class="er relationshipLabelBox"/><text style="text-anchor: middle; dominant-baseline: middle; font-size: 12px;" y="165.8724822998047" x="1367.8616943359375" id="rel11" class="er relationshipLabel">runtime</text></svg>