<svg width="32" height="32" viewBox="0 0 32 32" fill="none" xmlns="http://www.w3.org/2000/svg">
<path d="M4 2.66666V3.99999C4 5.33332 6.66667 5.33332 6.66667 6.66666C6.66667 7.99999 4 7.99999 4 9.33332C4 10.6667 6.66667 10.6667 6.66667 12C6.66667 13.3333 4 13.3333 4 14.6667C4 16 6.66667 16 6.66667 17.3333" stroke="#008DA5" stroke-width="1.5" stroke-linecap="round" stroke-linejoin="round"/>
<path d="M24 8H24.0133" stroke="#008DA5" stroke-width="1.5" stroke-linecap="round" stroke-linejoin="round"/>
<path d="M8 24H8.01333" stroke="#008DA5" stroke-width="1.5" stroke-linecap="round" stroke-linejoin="round"/>
<path d="M27.7733 11.7733C28.2689 11.2778 28.6619 10.6895 28.9301 10.0421C29.1983 9.39468 29.3363 8.70077 29.3363 8C29.3363 7.29922 29.1983 6.60531 28.9301 5.95788C28.6619 5.31045 28.2689 4.72218 27.7733 4.22666C27.2778 3.73114 26.6895 3.33807 26.0421 3.0699C25.3947 2.80172 24.7008 2.6637 24 2.6637C23.2992 2.6637 22.6053 2.80172 21.9579 3.0699C21.3105 3.33807 20.7222 3.73114 20.2267 4.22666L4.22666 20.2267C3.22591 21.2274 2.6637 22.5847 2.6637 24C2.6637 24.7008 2.80172 25.3947 3.0699 26.0421C3.33807 26.6895 3.73114 27.2778 4.22666 27.7733C4.72218 28.2689 5.31045 28.6619 5.95788 28.9301C6.60531 29.1983 7.29922 29.3363 8 29.3363C9.41527 29.3363 10.7726 28.7741 11.7733 27.7733L27.7733 11.7733Z" stroke="#008DA5" stroke-width="1.5" stroke-linecap="round" stroke-linejoin="round"/>
<path d="M24 15.5467V29.3333C25.4145 29.3333 26.771 28.7714 27.7712 27.7712C28.7714 26.771 29.3333 25.4145 29.3333 24V8" stroke="#008DA5" stroke-width="1.5" stroke-linecap="round" stroke-linejoin="round"/>
</svg>
