<svg width="33" height="32" viewBox="0 0 33 32" fill="none" xmlns="http://www.w3.org/2000/svg">
<path d="M6.33335 22C4.33335 23.68 3.66668 28.6667 3.66668 28.6667C3.66668 28.6667 8.65335 28 10.3333 26C11.28 24.88 11.2667 23.16 10.2133 22.12C9.69509 21.6253 9.0124 21.3395 8.29631 21.3174C7.58022 21.2952 6.88118 21.5383 6.33335 22Z" stroke="#008DA5" stroke-width="1.5" stroke-linecap="round" stroke-linejoin="round"/>
<path d="M16.3333 20L12.3333 16C13.0429 14.1593 13.9363 12.3948 15 10.7333C16.5536 8.24933 18.7168 6.20408 21.284 4.79214C23.8512 3.38019 26.7369 2.64851 29.6667 2.66668C29.6667 6.29335 28.6267 12.6667 21.6667 17.3333C19.9825 18.3983 18.1958 19.2917 16.3333 20Z" stroke="#008DA5" stroke-width="1.5" stroke-linecap="round" stroke-linejoin="round"/>
<path d="M12.3333 16H5.66668C5.66668 16 6.40001 11.96 8.33335 10.6667C10.4933 9.22667 15 10.6667 15 10.6667" stroke="#008DA5" stroke-width="1.5" stroke-linecap="round" stroke-linejoin="round"/>
<path d="M16.3333 20V26.6667C16.3333 26.6667 20.3733 25.9333 21.6667 24C23.1067 21.84 21.6667 17.3333 21.6667 17.3333" stroke="#008DA5" stroke-width="1.5" stroke-linecap="round" stroke-linejoin="round"/>
</svg>
